<?xml version="1.0" encoding="UTF-8"?>
<svg xmlns="http://www.w3.org/2000/svg" viewBox="0 0 386 398.75">
  <defs>
    <style>
      .cls-1 {
        fill: #e0472d;
      }

      .cls-2 {
        fill: #6cc261;
      }

      .cls-3 {
        stroke: #fff;
      }

      .cls-3, .cls-4 {
        fill: none;
        stroke-miterlimit: 10;
      }

      .cls-5 {
        opacity: .31;
      }

      .cls-6 {
        fill: #fff1c9;
      }

      .cls-4 {
        stroke: #255c19;
        stroke-width: .5px;
      }

      .cls-7 {
        fill: #39922c;
      }
    </style>
  </defs>
  <g id="Sfondo">
    <path class="cls-6" d="M310.13,294.47c.34-.28.46-.75.28-1.16-1.86-4.22-15.76-17.63-16.42-19.59l-.19-.41c-1.36-1.49-2.87-2.63-4.3-4.26-.06.04-.23-.06-.49-.27-2.93-2.41-17.41-19.56-23.65-26.99-1.76-2.1-17.69-22.27-17.69-22.27-2-2.31-5.69-6.14-7.38-7.87-.45-.46-.35-1.23.21-1.56l138.07-81.48c.38-.23.57-.68.46-1.11-1.96-7.5-18.49-70.89-18.46-70.95.04-.76-5.38-10.33-6.1-11.6-.05-.09-.12-.17-.2-.25l-25.86-23.3c-.5-.45-1.29-.29-1.58.32l-8.9,19.21c-.14.29-.4.5-.72.56l-39.22,7.6c-.06.01-.13.02-.19.02h-20.91c-.1,0-.21-.02-.31-.05l-17.6-5.69s-.08-.03-.12-.05l-19.86-9.34c-.3-.16-1.37-.93-2.1-1.4l-.26-.16c-1.78-1.06-25.1-15.94-27.76-17.64-.16-.1-.29-.25-.37-.43l-3.19-6.97c-.25-.54-.92-.75-1.43-.44l-28.21,17.16c-.18.11-.4.16-.62.14l-30.54-2.98s-.04,0-.06,0c-1.09-.04-35.54-1.19-40.55-1.36-.34-.01-.65.14-.84.42-1.9,2.72-13.96,17.11-14.78,18.1-.03.04-.06.07-.08.12l-2.61,4.3s-.04.07-.07.1l-37.03,47.19c-2.81,3.65-21.58,25.95-23.84,30.92-.2.43-.04.94.34,1.21l39.12,27.67.23.12c.33.17,1.38.84,2.16,1.34.49.32.61.98.25,1.45L7.19,204.39c-.34.44-.26,1.06.18,1.4,6.83,5.21,48.75,35.22,53.65,40.48.32.34.34.86.07,1.24l-25.78,35.49c-.31.43-.23,1.02.19,1.36,3.68,2.95,15.74,12.66,17.04,12.79l59.91,42.26h.01s40.82,30.64,40.82,30.64l.74.56c3.71,2.74,7.33,5.41,10.92,8.05,9.07,6.65,16.89,12.13,26.13,19.16.41.32,1,.26,1.35-.12l.3-.33s.06-.06.09-.09c1.48-1.26,112.11-98.43,117.33-102.81Z"/>
  </g>
  <g id="Scale" class="cls-5">
    <line class="cls-4" x1="56.64" y1="107.68" x2="65.69" y2="113.33"/>
    <line class="cls-4" x1="59.86" y1="100.04" x2="68.25" y2="105.47"/>
    <line class="cls-4" x1="67.09" y1="92.2" x2="73.73" y2="97.55"/>
    <line class="cls-4" x1="73.73" y1="86.01" x2="83.13" y2="93.21"/>
    <line class="cls-4" x1="76.68" y1="84.17" x2="94.83" y2="86.01"/>
    <line class="cls-4" x1="75.83" y1="83.76" x2="90.83" y2="66.99"/>
    <line class="cls-4" x1="83.13" y1="57.43" x2="93.26" y2="61.25"/>
    <line class="cls-4" x1="85.75" y1="52.4" x2="99.26" y2="54.01"/>
    <line class="cls-4" x1="88.19" y1="47.8" x2="103.08" y2="45.57"/>
    <line class="cls-4" x1="92.51" y1="33.1" x2="100.94" y2="38.73"/>
    <line class="cls-4" x1="99.26" y1="27.27" x2="105.49" y2="34.71"/>
    <line class="cls-4" x1="108.56" y1="24.86" x2="110.71" y2="37.33"/>
    <line class="cls-4" x1="113.73" y1="24.86" x2="114.73" y2="34.71"/>
    <line class="cls-4" x1="116.54" y1="24.86" x2="125.59" y2="26.07"/>
    <line class="cls-4" x1="117.35" y1="22.45" x2="125.59" y2="23.5"/>
    <line class="cls-4" x1="117.71" y1="25.72" x2="117.35" y2="34.71"/>
    <line class="cls-4" x1="122.92" y1="26.07" x2="119.56" y2="34.71"/>
    <line class="cls-4" x1="126.39" y1="30.21" x2="121.24" y2="37.33"/>
    <line class="cls-4" x1="133.23" y1="37.33" x2="125.59" y2="38.73"/>
    <line class="cls-4" x1="97.45" y1="103.85" x2="108.56" y2="103.85"/>
    <line class="cls-4" x1="100.71" y1="95.42" x2="108.91" y2="96.22"/>
    <line class="cls-4" x1="105.49" y1="70.58" x2="107.1" y2="75.05"/>
    <line class="cls-4" x1="114.23" y1="78.91" x2="107.1" y2="75.05"/>
    <line class="cls-4" x1="118.27" y1="75.92" x2="109.64" y2="66.99"/>
    <line class="cls-4" x1="121.47" y1="71.8" x2="117.71" y2="62.51"/>
    <line class="cls-4" x1="126.39" y1="70.58" x2="122.92" y2="59.34"/>
    <line class="cls-4" x1="126.39" y1="56.44" x2="129.41" y2="69.09"/>
    <line class="cls-4" x1="134.64" y1="60.24" x2="129.41" y2="69.09"/>
    <line class="cls-4" x1="127.9" y1="55" x2="134.64" y2="56.44"/>
    <line class="cls-4" x1="127.9" y1="52.4" x2="133.23" y2="54.01"/>
    <line class="cls-4" x1="127.9" y1="49.39" x2="136.24" y2="51.57"/>
    <line class="cls-4" x1="136.24" y1="40.34" x2="136.24" y2="45.86"/>
    <line class="cls-4" x1="138.66" y1="40.34" x2="138.46" y2="46.68"/>
    <line class="cls-4" x1="141.63" y1="38.73" x2="141.63" y2="47.8"/>
    <line class="cls-4" x1="108.56" y1="90.8" x2="99.26" y2="89.61"/>
    <line class="cls-4" x1="129.41" y1="120.43" x2="133.23" y2="130.6"/>
    <line class="cls-4" x1="134.64" y1="117.53" x2="138.66" y2="127.18"/>
    <line class="cls-4" x1="152.12" y1="128.99" x2="147.1" y2="134.62"/>
    <line class="cls-4" x1="148.1" y1="109.69" x2="136.24" y2="107.68"/>
    <line class="cls-4" x1="148.1" y1="103.85" x2="138.46" y2="100.04"/>
    <line class="cls-4" x1="147.1" y1="116.73" x2="134.64" y2="113.33"/>
    <line class="cls-4" x1="154.5" y1="93.21" x2="155.94" y2="100.04"/>
    <line class="cls-4" x1="161.57" y1="90.8" x2="161.37" y2="100.04"/>
    <line class="cls-4" x1="170.16" y1="93.21" x2="167.4" y2="101.05"/>
    <line class="cls-4" x1="140.06" y1="90.2" x2="151.12" y2="88.18"/>
    <line class="cls-4" x1="138.66" y1="83.1" x2="148.1" y2="79.94"/>
    <line class="cls-4" x1="135.84" y1="75.12" x2="148.1" y2="69.09"/>
    <line class="cls-4" x1="175.3" y1="95.82" x2="179.94" y2="95.82"/>
    <line class="cls-4" x1="175.3" y1="92.2" x2="179.94" y2="92.2"/>
    <line class="cls-4" x1="175.3" y1="88.18" x2="179.94" y2="90.2"/>
    <line class="cls-4" x1="177.62" y1="84.17" x2="182.65" y2="88.18"/>
    <line class="cls-4" x1="182.65" y1="81.52" x2="184.89" y2="88.18"/>
    <line class="cls-4" x1="187.1" y1="81.52" x2="187.1" y2="87.58"/>
    <line class="cls-4" x1="190.9" y1="83.1" x2="188.64" y2="88.18"/>
    <line class="cls-4" x1="196.52" y1="93.21" x2="201" y2="90.2"/>
    <line class="cls-4" x1="196.52" y1="95.82" x2="203.38" y2="93.21"/>
    <line class="cls-4" x1="196.55" y1="98.23" x2="204.99" y2="97.55"/>
    <line class="cls-4" x1="195.95" y1="100.65" x2="203.38" y2="102.76"/>
    <line class="cls-4" x1="193.53" y1="102.46" x2="198.76" y2="106.81"/>
    <line class="cls-4" x1="190.92" y1="102.05" x2="195.14" y2="109.69"/>
    <line class="cls-4" x1="195.14" y1="83.1" x2="201.84" y2="89.19"/>
    <line class="cls-4" x1="195.95" y1="79.94" x2="204.99" y2="87.58"/>
    <line class="cls-4" x1="197.93" y1="68.91" x2="198.49" y2="75.12"/>
    <line class="cls-4" x1="195.14" y1="67.15" x2="196.52" y2="73.91"/>
    <line class="cls-4" x1="189.77" y1="68.91" x2="196.52" y2="73.91"/>
    <line class="cls-4" x1="188.64" y1="72.81" x2="196.15" y2="75.05"/>
    <line class="cls-4" x1="190.92" y1="78.91" x2="196.55" y2="75.92"/>
    <line class="cls-4" x1="206" y1="89.61" x2="205.8" y2="83.1"/>
    <line class="cls-4" x1="211.63" y1="93.21" x2="208.41" y2="84.85"/>
    <line class="cls-4" x1="216.75" y1="89.61" x2="208.41" y2="83.76"/>
    <line class="cls-4" x1="216.75" y1="83.76" x2="208.41" y2="81.52"/>
    <line class="cls-4" x1="215.23" y1="79.94" x2="207.35" y2="79.94"/>
    <line class="cls-4" x1="185.58" y1="114.67" x2="193.55" y2="109.33"/>
    <line class="cls-4" x1="187.1" y1="117.53" x2="195.14" y2="109.69"/>
    <line class="cls-4" x1="189.77" y1="120.43" x2="196.52" y2="112"/>
    <line class="cls-4" x1="197.69" y1="67.15" x2="204.99" y2="64.96"/>
    <line class="cls-4" x1="195.83" y1="63.86" x2="203.38" y2="62.76"/>
    <line class="cls-4" x1="193.74" y1="59.34" x2="203.38" y2="61.25"/>
    <line class="cls-4" x1="197.69" y1="55.72" x2="203.38" y2="59.34"/>
    <line class="cls-4" x1="200.77" y1="52.4" x2="203.38" y2="59.34"/>
    <line class="cls-4" x1="206" y1="52.4" x2="205.8" y2="59.34"/>
    <line class="cls-4" x1="210.02" y1="53.21" x2="208.41" y2="59.34"/>
    <line class="cls-4" x1="223.08" y1="61.25" x2="217.82" y2="63.86"/>
    <line class="cls-4" x1="226.1" y1="63.86" x2="217.82" y2="66.06"/>
    <line class="cls-4" x1="229.42" y1="68.91" x2="219.06" y2="68.08"/>
    <line class="cls-4" x1="232.06" y1="73.91" x2="221.96" y2="71.45"/>
    <line class="cls-4" x1="230.92" y1="79.94" x2="223.08" y2="73.91"/>
    <line class="cls-4" x1="226.1" y1="83.1" x2="221.96" y2="73.93"/>
    <line class="cls-4" x1="220.45" y1="84.17" x2="219.06" y2="72.68"/>
    <line class="cls-4" x1="215.23" y1="81.52" x2="215.23" y2="72.1"/>
    <line class="cls-4" x1="189.77" y1="122.36" x2="199.61" y2="130.6"/>
    <line class="cls-4" x1="185.58" y1="120.43" x2="199.95" y2="120.43"/>
    <line class="cls-4" x1="187.1" y1="126.48" x2="195.83" y2="132.81"/>
    <line class="cls-4" x1="183.77" y1="129.64" x2="191.47" y2="136.03"/>
    <line class="cls-4" x1="177.62" y1="134.62" x2="191.47" y2="142.86"/>
    <line class="cls-4" x1="174.04" y1="155.12" x2="187.1" y2="149.09"/>
    <line class="cls-4" x1="176.25" y1="161.15" x2="189.77" y2="157.74"/>
    <line class="cls-4" x1="174.04" y1="170.6" x2="189.56" y2="166.38"/>
    <line class="cls-4" x1="173.19" y1="177.85" x2="182.65" y2="185.48"/>
    <line class="cls-4" x1="167.91" y1="185.48" x2="177.62" y2="194.72"/>
    <line class="cls-4" x1="165.39" y1="191.51" x2="172.76" y2="199.62"/>
    <line class="cls-4" x1="169.08" y1="205.98" x2="169.08" y2="215.17"/>
    <line class="cls-4" x1="180.13" y1="205.98" x2="180.13" y2="216.12"/>
    <line class="cls-4" x1="185.58" y1="205.98" x2="187.62" y2="216.12"/>
    <line class="cls-4" x1="193.74" y1="203.77" x2="201" y2="213.51"/>
    <line class="cls-4" x1="199.67" y1="199.62" x2="206" y2="207.7"/>
    <line class="cls-4" x1="209.21" y1="194.72" x2="215.23" y2="201.92"/>
    <line class="cls-4" x1="216.75" y1="190.41" x2="221.96" y2="198.32"/>
    <line class="cls-4" x1="224.24" y1="187.88" x2="228.11" y2="195.57"/>
    <line class="cls-4" x1="228.11" y1="185.48" x2="235.35" y2="190.41"/>
    <line class="cls-4" x1="230.92" y1="181.66" x2="240" y2="184.47"/>
    <line class="cls-4" x1="191.79" y1="180.65" x2="198.76" y2="170.6"/>
    <line class="cls-4" x1="207.35" y1="184.47" x2="209.21" y2="173.09"/>
    <line class="cls-4" x1="206" y1="130.6" x2="206" y2="120.43"/>
    <line class="cls-4" x1="212.58" y1="132.81" x2="215.23" y2="120.43"/>
    <line class="cls-4" x1="219.76" y1="134.62" x2="224.9" y2="121.35"/>
    <line class="cls-4" x1="224.24" y1="138.74" x2="232.56" y2="134.62"/>
    <line class="cls-4" x1="228.4" y1="145.81" x2="236.55" y2="144.67"/>
    <line class="cls-4" x1="227.01" y1="157.74" x2="238.36" y2="159.45"/>
    <line class="cls-4" x1="237.56" y1="136.03" x2="238.36" y2="120.43"/>
    <line class="cls-4" x1="246.8" y1="136.68" x2="247.81" y2="125.51"/>
    <line class="cls-4" x1="254.04" y1="138.74" x2="258.26" y2="127.99"/>
    <line class="cls-4" x1="260.68" y1="141.94" x2="267.11" y2="134.62"/>
    <line class="cls-4" x1="243.39" y1="163.16" x2="254.04" y2="170.6"/>
    <line class="cls-4" x1="250.83" y1="157.74" x2="259.27" y2="166.88"/>
    <line class="cls-4" x1="257.46" y1="152.11" x2="263.89" y2="162.31"/>
    <line class="cls-4" x1="279.97" y1="138.74" x2="275.74" y2="153.92"/>
    <line class="cls-4" x1="297.66" y1="138.74" x2="303.09" y2="146.33"/>
    <line class="cls-4" x1="315.96" y1="114.67" x2="324.4" y2="120.43"/>
    <line class="cls-4" x1="350.93" y1="94.51" x2="361.99" y2="83.76"/>
    <line class="cls-4" x1="349.73" y1="82.64" x2="360.78" y2="77.41"/>
    <line class="cls-4" x1="349.73" y1="68.08" x2="360.78" y2="66.06"/>
    <line class="cls-4" x1="342.89" y1="55.87" x2="344.7" y2="41.41"/>
    <line class="cls-4" x1="330.23" y1="55.87" x2="326.21" y2="40.34"/>
    <line class="cls-4" x1="324.4" y1="60.24" x2="315.96" y2="46.68"/>
    <line class="cls-4" x1="314.95" y1="72.68" x2="306.91" y2="62.51"/>
    <line class="cls-4" x1="309.32" y1="76.81" x2="300.38" y2="67.6"/>
    <line class="cls-4" x1="297.66" y1="84.85" x2="291.03" y2="71.45"/>
    <line class="cls-4" x1="286.41" y1="87.58" x2="281.18" y2="76.81"/>
    <line class="cls-4" x1="276.76" y1="93.21" x2="270.73" y2="81.52"/>
    <line class="cls-4" x1="268.9" y1="94.51" x2="260.68" y2="83.76"/>
    <line class="cls-4" x1="251.47" y1="98.23" x2="247.81" y2="88.18"/>
    <line class="cls-4" x1="241.29" y1="101.7" x2="238.71" y2="92.2"/>
    <line class="cls-4" x1="231.73" y1="104.63" x2="224.9" y2="94.51"/>
    <line class="cls-4" x1="221.96" y1="108.69" x2="215.23" y2="98.92"/>
    <line class="cls-4" x1="214.44" y1="112.91" x2="204.99" y2="104.63"/>
    <line class="cls-4" x1="213.9" y1="54.01" x2="221.96" y2="60.29"/>
    <line class="cls-4" x1="213.9" y1="51.57" x2="224.9" y2="60.29"/>
    <line class="cls-4" x1="228.11" y1="64.96" x2="235.35" y2="51.57"/>
    <line class="cls-4" x1="286.41" y1="57.53" x2="287.21" y2="50.48"/>
    <line class="cls-4" x1="257.46" y1="66.99" x2="254.04" y2="54.01"/>
    <line class="cls-4" x1="146.36" y1="35.8" x2="149.45" y2="41.94"/>
    <line class="cls-4" x1="154.5" y1="38.87" x2="147.1" y2="34.71"/>
    <line class="cls-4" x1="156.95" y1="35.8" x2="146.36" y2="30.21"/>
    <line class="cls-4" x1="160.37" y1="35.8" x2="152.12" y2="28.13"/>
    <line class="cls-4" x1="163.27" y1="36.79" x2="160.37" y2="27.07"/>
    <line class="cls-4" x1="166.6" y1="36.79" x2="166.4" y2="28.13"/>
    <line class="cls-4" x1="171.42" y1="36.79" x2="168.78" y2="27.07"/>
    <line class="cls-4" x1="176.25" y1="33.77" x2="172.76" y2="25.72"/>
    <path class="cls-4" d="M72.92,79.02c.44.9,1.2,1.65,2.11,2.07"/>
    <path class="cls-4" d="M72,73.65c-.08.88.02,1.77.29,2.61"/>
    <path class="cls-4" d="M73.12,68.46c-.38.82-.67,1.69-.86,2.58"/>
    <path class="cls-4" d="M75.93,64.85c-.58.54-1.12,1.14-1.59,1.77"/>
    <path class="cls-4" d="M80.72,62.86c-.91.31-1.78.75-2.58,1.29"/>
  </g>
  <g id="Layer_3" data-name="Layer 3">
    <g>
      <g id="Verde">
        <path class="cls-7" d="M354.75,107.39c1.94-1.49,8.7-11.26,8.66-15.68-.05-5.02-6.1-9.36-4.95-16.98.12-.76,2.91-13.28,1.71-18.27-.06-.25-.12-.48-.19-.71-2.04-6.62-13.12-13.36-19.65-14.83-12.79-2.86-16.86,4.9-27.2,9.16-15.26,6.3-32,1.45-47.99.39-2.12-.14-5.03.72-6.75-.75-1.25.73-2.49,1.51-3.75,2.25.01.13.03.26.06.38h0c.31,1.49,1.64,2.84,2.94,3.36.07.03.15.06.22.08.14.06.29.11.44.15,3.48,1.05,9.28.39,12.84.52,1,.04,2.01-.04,3,.01-.87,2.67-2.83,1.03-3.59.77-.06-.02-.12-.03-.16-.03-4.76-.02-8.21-.22-12.75-.75-1.5-.18-2.88-1.4-4.2-1.49-4.21-.26-6.71,1.23-11.53.33.31.02.67.04,1.05.04-.86-.06-1.71-.18-2.57-.38-5.3-1.4-4.8-3.65-7.99-5.88-9.36-6.55-8.36-3.75-14.51-14.33l1.5-.75c8.09,4.39,31.89,14.13,40.5,14.97.74.08,1.51-.04,2.25,0,1.48.09,3.02.02,4.5,0,11.35-.13,44.37-4.66,52.08-12.77,3.76-3.95,7.09-11.52,9.89-16.2.92-.22,7.39,5.34,8.62,6.36,3.62,3.02,20.22,18.44,21.66,21.12.65,1.2,2.01,1.51,1.92,2.86,1.2,3.34,1.93,6.89,2.95,10.31.02.06.03.11.05.17,4.93,16.25,9.35,31.13,13.9,47.51,1.22,3.28,4.6.07,5.45.63.31.2,1.49,7.73,2.73,8.47v.75l-3.57,1.34c-.78.29-1.14,1.21-.75,1.95l3.57,6.85c-41.26,22.66-82.78,44.96-123.75,68.13-7.83,2.14-14.92,6.35-22.4,9.33-.76.3-2.39-.63-3.84-.04-8.23,3.39-22.68,9.8-30.05,14.24-6.64,4-12.83,16.58-20.66,16.89-3.1.13-10.39-7.29-13.4-9.01-1.43-2.07-16.6-13.57-16.14-14.56,1.54-3.34,10.11.77,12.41,1.07,7.34.93,17.34.93,24.51-.9,9.3-2.37,13.34-9.14,21.07-13.4,5.17-2.86,14.55-4.75,18.47-7.77,3.95-3.04,11.51-14.86,15.76-19.45,4.55-4.91,18.16-18.05,23.75-20.47,4.95-2.14,18.18-1.5,25.15-4.13,18.67-7.04,17.78-34.91,42.3-38.59,0,0,13.14.25,16.43-2.27Z"/>
        <path class="cls-7" d="M89.3,47.93c-.38,1.9-3.8,12.38-4.68,12.88-.83.48-3.13-.1-4.92.71-8.11,3.68-11.75,9.99-7.88,18.69,1.55,3.49,6.61,1.77,6.18,4.3-.18,1.02-4.15,2.72-5.27,3.73-7.82,7.03-13.89,13.28-14.99,24.35l-29.24-22.45c12.16-15.83,24.42-31.48,36.75-47.17.09-.02.18-.04.28-.06,0,0,.03,0,.04,0,3.82-.47,23.54,3.85,23.73,5.03Z"/>
        <path class="cls-7" d="M216.75,32.49c-.1.34-.42.71-.75.75-3.06.39-6.29.92-9.39.78-2.58-.13-5.44-3.53-6.24,1.28-.24,1.46,1.07,4.99.63,5.42-2.78,2.67-14.54-14.11-17.05-15.89l-.21-4.31c-.51-.75-12.59,8.23-16.12,8.23h-19.87s-.04.01-.06.04c-.31.57.78,6.93-.92,9.47-2.03,3.01-12.45,4.41-15.13,1.71-.87-.87-1.18-3.23-2.15-4.59-3.73-5.26-7.77-7.21-4.99-14.11,6.77.48,25.48,2.42,30.95,1.32,1.06-.21,10.3-4.68,10.63-5.23,1.28-2.17-2.56-5.39-1.86-6.66.11-.18,5.5-3.2,6.18-3.01,1.42.42,1.42,4.37,3.06,5.21l11.41-7.32c3.05,9.39,10.43,10.54,17.85,15.83,4.69,3.33,9.46,8.27,14.02,11.08Z"/>
        <path class="cls-7" d="M61.48,246.96l-26.73,36.82c-1.11-.88-6.74-4.09-6.74-4.86.07-1.02,24.95-27.89,23.72-29.3-72.45-60.96-45.99-31.49-6.22-97.75-6.28-8.02,15.65,8.36,15.65,8.36,0,0-12.47,14.08-17.48,17.62-3.27,2.32-10.17,2.71-13.3,5.22-3.65,2.93-12,14.39-10.59,18.85,1.65,5.22,16.79,18.56,21.99,16.87,12.3-4,37.64-43.3,37.64-43.3l14.33,12.39-39.98,52.32s7.62,4.48,7.7,6.75Z"/>
        <path class="cls-7" d="M162.92,359.29l-8.32,10.53c-.33.44-.95.54-1.4.21l-40.37-29.87c-.45-.33-.54-.97-.2-1.42l9.74-11.99c.34-.44.98-.52,1.42-.17l38.95,31.33c.42.34.5.94.18,1.37Z"/>
        <path class="cls-7" d="M117.71,25.72c-.53.46-10.64,1.1-13.76,2.37-5.66,2.31-11.82,10.81-17.5,14.02l-18.2-3.62c2.12-2.67,13.16-18.07,14.78-18.55,3.89-1.16,20.71,1.44,21.86-1.41.38-.92,0-2.43.88-3.25,1.18-.59,3.38-.64,6.99,0,1.12.35-.09,4.36.34,4.78.21.21,2.73.41,3.9.48.07,0,.14,0,.21.02.45.09.72.41.88.86.52,1.45-.23,4.18-.38,4.31Z"/>
        <path class="cls-7" d="M242.57,55.34c-.38,0-.74-.02-1.05-.04h-.03c-.71-.06-1.24-.16-1.49-.34.86.2,1.71.32,2.57.38Z"/>
        <path class="cls-7" d="M352.51,73.29c.09,7.94,5.26,17.77.37,24.33-5.76,7.73-22.65,3.42-34.51,17.21-8.56,8.8-15.09,28.7-28.56,30.63-14.01,2.01-15.87-5.32-26.66-10.69-16.5-8.2-33.74-11.54-52.03-12.28-1.97-.08-12.35,1.79-13.08.54-1.11-7.75,6.54-12.06,12.48-15.53,31-18.12,80.08-16.18,103.73-43.19,3.33-3.81,9.43-14.82,14.28-16.47.66-.22,10.6.44,12.02.7,1.16.22,7.72,2.68,8.73,3.26,7.1,4.12,3.16,15.3,3.23,21.49Z"/>
        <path class="cls-7" d="M178.52,166.15c-.52,11.18-6.34,22.26-13.55,30.64-5.91,6.9-14.74,15.98-23.16,7.45l-52.74-46.91c.98-9.57-7.59-26.2-5.66-34.46,1.09-4.68,11.5-11.01,16.02-10.01.75.16,5.35,8.63,6.77,10.15.74.78,9.47,7.68,10.07,7.92,8.94,3.52,19.43-6.2,23.42-5.45,3.49.66,11.25,13.99,15.93,17.07,5.06,3.32,19.62,4.73,21.75,9.74.8,1.89,1.27,11.36,1.15,13.86Z"/>
        <path class="cls-7" d="M197.96,56.78c-2.67,5.01,1.86,9.83,1.54,11.25-.63,2.77-9.85-2.46-10.34,3.88-.35,4.67,11.21,6.45,6.97,10.74-2.02,2.04-14.22-2.2-19.55,2.95-2.54,2.45.35,10.67-2.23,11.27-.57.13-4.29-1.98-6.04-2.17-6.32-.72-13.27.94-19.51-.75-.98-.77-2.43-14.21-3.67-17.29-.37-.91-4.62-8.7-5.16-9.46-1.82-2.61-8.6-6.96-8.76-7.52-.42-1.44,1.93-12.66,3.01-13.36,2.26-1.46,5.96,1.01,8.98.01.38-.13,6.19-3.99,6.54-4.36,2.06-2.18,1.87-4.76,2.92-6.45,1.81-2.91,13.64-1.01,17.78-1.71,3.77-.64,9.74-5.59,11.58-5.68,1.46-.07,10.58,12.1,13.79,14.41,3.5,2.52,19.05,7.73,19.32,9.14,1.43,7.38-13.57-1.62-17.17,5.1Z"/>
        <path class="cls-7" d="M311.69,57.98c-1.67,5.56-16.78,15.83-22.2,18.29-28.26,12.84-60.23,14.11-86.47,31.23-1.52.99-6.5,5.74-6.95,5.82-1.09.17-2.59-2.7-4.07-3.72-.09-.06-.19-.12-.29-.18-1.46-.96-.84-1.28.92-1.32h.12c3.99-.11,5.94-.48,8.65-3.72,6.97-8.31-5.03-13.3.68-17.3,3.21-2.25,6.82,4.38,9.65,3.73,4.58-3.01,2.59-8.35,1.28-12.65,5.2,2.61,14.02,5.97,15.01-2.61.95-8.24-7.25-11.03-7.55-14.28-.66-6.99,9.39.35,12.03,1.56,2.04.95,5.63,3.05,6.95,3.53,7.69,2.76,12.9-2.26,19.87-3.73,7.97-1.68,13.34-.39,21.49-4.03.81-.36.94-1.93,1.73-2.16,4.81-1.39,19.07.67,25.38.07.33-.03,5.47-4.21,3.77,1.47Z"/>
        <path class="cls-7" d="M231.75,159.39c-.25,2.11-6.19,13.73-7.52,14.95-8.01,7.4-28.74,1.85-35.73-5.1-7.26-7.22-7.33-20.81-2.62-29.43,7.21-13.23,21.54-14.12,34.4-8.64,10.58,4.51,12.7,17.92,11.47,28.22Z"/>
        <path class="cls-7" d="M136.37,117.33c-4.15,7.03-13.73,13.82-21.87,9.37-10.76-5.87-12.02-27.84-8.58-38.26,2.37-7.2,11.09-20.23,19.15-21.34,11.09-1.53,15.66,13.53,16.47,22.13.6,6.37-1.96,22.66-5.17,28.1Z"/>
        <path class="cls-7" d="M215.58,295.74c-.04,3.55,1.28,6.36,1.96,7.56.22.39.15.87-.16,1.18l-23.82,24.5c-.34.35-.89.41-1.29.12-3.91-2.77-23.28-16.47-29.15-20.21-.56-.36-.62-1.16-.11-1.59l36.37-31.61c.35-.31.87-.33,1.25-.05l16.09,11.83c.36.27.5.74.34,1.16-.49,1.28-1.44,4.13-1.47,7.12Z"/>
        <path class="cls-7" d="M262.48,326.64l-34.03,30.81c-.36.32-.89.35-1.28.05l-27.03-20.63c-.47-.36-.53-1.05-.12-1.48l22.98-24.61c.3-.32.77-.41,1.17-.22,1.53.76,5.67,2.51,10.89,2.35,4.68-.15,8.34-1.55,9.68-2.14.35-.15.74-.09,1.03.15,2.47,2.06,13.7,11.43,16.74,14.24.43.4.42,1.08-.01,1.47Z"/>
        <path class="cls-7" d="M312.95,295.92l-42.06,34.28c-24.4,22.83-54.65,44.77-79.74,66.81-3.6-3-21.68-14.41-25.85-17.66-.39-.31-.5-.85-.25-1.29l6.88-9.35c.3-.53,1-.66,1.48-.29,4.3,3.38,23.72,15.6,27.82,18.34.38.25.88.21,1.21-.1,3.99-3.77,28.17-26.63,39.82-37.51,6.09-5.69,55.78-48.13,62.62-53.97.43-.37.47-1.01.09-1.42-2.16-2.38-11.25-13.61-13.62-16.55-.32-.4-.29-.98.08-1.34.8-.78,2.13-2.04,2.57-2.33,5.92,6.77,12.42,12.18,17.49,19.09.54.74,1.92,2.48,1.46,3.29Z"/>
        <path class="cls-7" d="M262.5,330.43c-.09.08-.19.17-.28.25-.1.08-.2.14-.28.19.19-.15.37-.29.56-.44Z"/>
        <path class="cls-7" d="M190.86,125.3c-.47,1.16-12.1,14.05-13.6,14.88-14.91,8.26-35.24-14.59-33.07-29.28.65-4.42,3.76-10.61,8.61-11.61,2.66-.54,13.45-.54,15.91.24,4.04,1.29,4.03,6.37,7.17,9.31,5,4.69,19.71,4.75,14.98,16.46Z"/>
        <path class="cls-7" d="M296.14,297.08l-24.86,20.72c-.38.31-.92.31-1.29-.01l-18.14-15.67c-.34-.29-.44-.76-.26-1.17.54-1.19,1.53-3.9,1.26-7.21-.34-4.1-1.18-6.47-1.65-7.52-.18-.4-.08-.88.25-1.17l17.59-15.3c.4-.34.99-.32,1.36.05l25.81,25.82c.42.42.38,1.1-.07,1.48Z"/>
        <path class="cls-7" d="M216.25,192.58c-13.77,7.52-21.44,17.35-38.91,17.36-4.3,0-9.37-1.96-13.84-1.52-2.1-2.04,10.99-15.79,12.63-18.46,1.68-2.75,6.51-16.07,8.13-16.62,3.31-1.14,4.92,2,7.31,2.94,6.91,2.74,14.08,5.06,21.59,4.23,4.01-.44,16.62-6.63,18.46-1.53,3.19,8.89-10.09,10.72-15.37,13.6Z"/>
        <path class="cls-7" d="M98.82,104.93c-2.37,3.39-14.45,3.91-17.63,11.23-1.33,3.08-2.5,12.97-2.29,16.28.14,2.19,5.53,17.31-.68,14.8-.95-.39-12.64-9.54-12.98-10.31-4.97-11.42-.96-33.36,9.06-41.13,2.48-1.92,6.27-3.43,9.05-5.19,4.35-2.77,11.16-10.64,16.47-6.16,2.3,1.94.59,18.22-1,20.48Z"/>
        <path class="cls-7" d="M261.72,259.73l-18.44,18.39c-.36.36-.93.4-1.32.08-1.24-1-4.26-2.92-8.97-2.75-4.23.14-7.14,1.86-8.34,2.71-.38.27-.89.23-1.23-.08l-11.76-10.48c-.47-.42-.44-1.16.06-1.54l33.9-25.65c.43-.32,1.03-.25,1.37.16l14.8,17.81c.33.4.3.98-.06,1.35Z"/>
        <path class="cls-7" d="M128.31,47.09c-.06,15.16-7.45,15.53-18.58,20.45-1.8.79-3.19,2.95-5.46,3.54-3.02.78-13.74,1.19-14.87-2.41-2.13-6.75,1.98-8.77,3.64-13.3,2.68-7.3,6.28-21.39,15.5-23.45,9.58-2.15,19.8,5.17,19.77,15.17Z"/>
        <path class="cls-7" d="M255.08,156.47c-3.47,3.19-16.35,19.6-19.35,19.62-7.18.04.05-14.88.47-17.51.7-4.32.23-12.43-1.3-16.57-1.51-4.08-6.14-7.98-5.4-12.95.45-.46,11.29,1.47,12.78,1.84,3.04.76,25.37,9.05,26.11,10.25,3.22,5.24-9.74,12.04-13.31,15.32Z"/>
        <path class="cls-7" d="M120.28,262.23c-20.43,1.81-22.35-27.35-4.21-29.66,21.3-2.72,23.16,27.98,4.21,29.66Z"/>
        <path class="cls-7" d="M166.48,354.2l-31.62-24.43c-.46-.36-.52-1.03-.13-1.46l6.16-6.85c.35-.38.93-.44,1.34-.13l31.41,23.48c.45.33.53.97.2,1.41l-5.95,7.8c-.34.44-.97.52-1.41.18Z"/>
        <path class="cls-7" d="M261.57,239l-1.06.73c-.4.28-.95.22-1.29-.13l-9.81-10.23c-.35-.36-.91-.41-1.32-.11l-40.4,29.93c-.41.3-.99.25-1.33-.13-.69-.76-1.88-2.02-2.91-2.94-.46-.41-.44-1.14.05-1.52l43.42-34.48c.42-.33,1.02-.28,1.37.13,4.49,5.16,11.09,14.58,13.47,17.28.4.45.31,1.14-.19,1.48Z"/>
        <path class="cls-7" d="M196.83,267.08l-54.32,43.45c-.4.32-.96.29-1.33-.07l-7.81-7.77c-.42-.42-.39-1.11.07-1.49l53.6-44.03c.39-.32.95-.3,1.32.04l8.53,8.35c.44.42.42,1.13-.06,1.51Z"/>
        <path class="cls-7" d="M210.71,372.81l-5.7,5.99c-.33.35-.87.41-1.28.14l-25.97-17.2c-.48-.32-.59-.96-.25-1.43l5.81-7.92c.33-.45.96-.54,1.4-.21l25.86,19.13c.48.36.54,1.06.13,1.49Z"/>
        <path class="cls-7" d="M136.33,266.93l-12.24,15.07c-.34.41-.94.49-1.37.18l-16.89-12.32c-.44-.32-.54-.93-.23-1.38l1.23-1.76c.28-.4.81-.55,1.25-.33,1.78.89,6.63,2.86,13.04,1.98,5.18-.71,9.31-3.88,10.81-5.18.36-.31.9-.32,1.27-.02l2.97,2.33c.44.35.51.98.16,1.42Z"/>
        <path class="cls-7" d="M235.21,303.33c-12.47,1.64-14.81-16.26-3.66-18.39,13.27-2.53,15.69,16.8,3.66,18.39Z"/>
        <path class="cls-7" d="M224.06,75.72c-5,4.74-20.08-7.25-22.23-12.98-6.62-17.64,28.91,6.66,22.23,12.98Z"/>
        <path class="cls-7" d="M197.07,101.93c-5.11,5.39-17.14-1.64-17.8-8.49-1.16-11.97,17.51-5.15,18.7,3.13.2,1.43.1,4.31-.9,5.36Z"/>
        <path class="cls-7" d="M288.62,269.68c-.48.37-.99.8-1.4,1.15s-1.04.31-1.4-.1l-22.67-25.92c-.36-.41-.32-1.04.08-1.4l1.51-1.36c.42-.38,1.06-.34,1.42.09,3,3.47,15.41,17.85,22.61,26.1.38.44.31,1.1-.15,1.45Z"/>
        <path class="cls-7" d="M209.65,85.67c-1.01,1.56-6.21-2.74-7.51-3.79-1.4-1.12-9.84-8.52-8.64-9.71,2.42-2.37,20.37,6.97,16.15,13.5Z"/>
        <path class="cls-7" d="M262.5,330.43c-.09.08-.19.17-.28.25-.1.08-.2.14-.28.19.19-.15.37-.29.56-.44Z"/>
        <path class="cls-7" d="M242.57,55.34c-.38,0-.74-.02-1.05-.04h-.03c-.47-.09-.97-.2-1.49-.34.86.2,1.71.32,2.57.38Z"/>
        <path class="cls-7" d="M80.21,278.94l-10.59-8.32c-.44-.35-1.08-.26-1.42.18l-4.19,5.53c-.32.43-.93.52-1.37.22l-1.88-1.31c-.47-.33-.57-.99-.21-1.45l7.31-9.12c.34-.43.97-.5,1.4-.16l13.59,10.68c.41.32.5.89.22,1.33l-1.4,2.18c-.32.5-1,.61-1.46.24Z"/>
        <rect class="cls-7" x="84.11" y="251.09" width="5.03" height="23.1" rx="1" ry="1" transform="translate(-175.14 173.4) rotate(-52.92)"/>
        <rect class="cls-7" x="108.45" y="269.49" width="5.03" height="23.1" rx="1" ry="1" transform="translate(-180.15 200.12) rotate(-52.92)"/>
        <path class="cls-7" d="M139.5,229.18l14.67,11.97c.4.35.45.96.12,1.37l-13.23,17.26c-.34.42-.96.5-1.39.17l-2.87-2c-.39-.3-.51-.84-.27-1.27.97-1.74,4.32-5.81,3.74-12.24-.47-5.21-3.46-9.47-4.68-11.03-.3-.38-.28-.91.03-1.27l2.47-2.87c.36-.42,1.01-.47,1.42-.09Z"/>
        <path class="cls-7" d="M100.87,226.99l13.89-16.17c.35-.4.95-.46,1.37-.13l16.49,12.85c.43.33.51.95.19,1.39l-2.46,3.22c-.29.39-.83.52-1.26.29-1.76-.94-6.54-3.07-12.97-2.4-5.2.54-9.43,3.59-10.96,4.83-.37.3-.91.29-1.27-.02l-2.9-2.43c-.43-.36-.48-1-.11-1.42Z"/>
        <path class="cls-7" d="M95.54,234.75l-11.87,15.37c-.33.42-.26,1.02.14,1.37l15.85,13.63c.41.35,1.03.31,1.4-.09l1.43-1.6c.33-.37.35-.92.03-1.3-1.27-1.53-4.3-5.8-4.91-12.24-.49-5.2,1.65-9.95,2.57-11.7.22-.42.11-.95-.27-1.25l-2.95-2.36c-.44-.35-1.07-.27-1.42.17Z"/>
        <rect class="cls-7" x="71.91" y="235.35" width="23.1" height="5.03" rx="1" ry="1" transform="translate(-156.63 161.03) rotate(-52.92)"/>
        <rect class="cls-7" x="91.19" y="211.28" width="23.1" height="5.03" rx="1" ry="1" transform="translate(-126.76 153.84) rotate(-49.69)"/>
        <path class="cls-7" d="M65.38,261.87l-7.89,10.38c-.33.44-.96.53-1.4.19l-2.41-1.83c-.44-.33-.53-.96-.19-1.4l7.89-10.38c.33-.44.96-.53,1.4-.19l2.41,1.83c.44.33.53.96.19,1.4Z"/>
        <path class="cls-7" d="M81.39,220.77l-15.3,20.27c-.33.44-.96.53-1.4.19l-3.97-3.04c-.44-.33-.53-.96-.19-1.4l15.3-20.27c.33-.44.96-.53,1.4-.19l3.97,3.04c.44.33.53.96.19,1.4Z"/>
        <path class="cls-7" d="M101.26,194.5l-15.3,20.27c-.33.44-.96.53-1.4.19l-3.97-3.04c-.44-.33-.53-.96-.19-1.4l15.3-20.27c.33-.44.96-.53,1.4-.19l3.97,3.04c.44.33.53.96.19,1.4Z"/>
      </g>
      <g id="Verde-2" data-name="Verde">
        <path class="cls-2" d="M354.75,107.39c1.94-1.49,8.7-11.26,8.66-15.68-.05-5.02-6.1-9.36-4.95-16.98.12-.76,2.91-13.28,1.71-18.27-.06-.25-.12-.48-.19-.71-2.04-6.62-13.12-13.36-19.65-14.83-12.79-2.86-16.86,4.9-27.2,9.16-15.26,6.3-32,1.45-47.99.39-2.12-.14-5.03.72-6.75-.75-1.25.73-2.49,1.51-3.75,2.25.01.13.03.26.06.38h0c.31,1.49,1.64,2.84,2.94,3.36.07.03.15.06.22.08.14.06.29.11.44.15,3.48,1.05,9.28.39,12.84.52,1,.04,2.01-.04,3,.01-.87,2.67-2.83,1.03-3.59.77-.06-.02-.12-.03-.16-.03-4.76-.02-8.21-.22-12.75-.75-1.5-.18-2.88-1.4-4.2-1.49-4.21-.26-6.71,1.23-11.53.33.31.02.67.04,1.05.04-.86-.06-1.71-.18-2.57-.38-5.3-1.4-4.8-3.65-7.99-5.88-9.36-6.55-8.36-3.75-14.51-14.33l1.5-.75c8.09,4.39,31.89,14.13,40.5,14.97.74.08,1.51-.04,2.25,0,1.48.09,3.02.02,4.5,0,11.35-.13,44.37-4.66,52.08-12.77,3.76-3.95,7.09-11.52,9.89-16.2.92-.22,7.39,5.34,8.62,6.36,3.62,3.02,20.22,18.44,21.66,21.12.65,1.2,2.01,1.51,1.92,2.86,1.2,3.34,1.93,6.89,2.95,10.31.02.06.03.11.05.17,4.93,16.25,9.35,31.13,13.9,47.51,1.22,3.28,4.6.07,5.45.63.31.2,1.49,7.73,2.73,8.47v.75l-3.57,1.34c-.78.29-1.14,1.21-.75,1.95l3.57,6.85c-41.26,22.66-82.78,44.96-123.75,68.13-7.83,2.14-14.92,6.35-22.4,9.33-.76.3-2.39-.63-3.84-.04-8.23,3.39-22.68,9.8-30.05,14.24-6.64,4-12.83,16.58-20.66,16.89-3.1.13-10.39-7.29-13.4-9.01-1.43-2.07-16.6-13.57-16.14-14.56,1.54-3.34,10.11.77,12.41,1.07,7.34.93,17.34.93,24.51-.9,9.3-2.37,13.34-9.14,21.07-13.4,5.17-2.86,14.55-4.75,18.47-7.77,3.95-3.04,11.51-14.86,15.76-19.45,4.55-4.91,18.16-18.05,23.75-20.47,4.95-2.14,18.18-1.5,25.15-4.13,18.67-7.04,17.78-34.91,42.3-38.59,0,0,13.14.25,16.43-2.27Z"/>
        <path class="cls-2" d="M89.3,47.93c-.38,1.9-3.8,12.38-4.68,12.88-.83.48-3.13-.1-4.92.71-8.11,3.68-11.75,9.99-7.88,18.69,1.55,3.49,6.61,1.77,6.18,4.3-.18,1.02-4.15,2.72-5.27,3.73-7.82,7.03-13.89,13.28-14.99,24.35l-29.24-22.45c12.16-15.83,24.42-31.48,36.75-47.17.09-.02.18-.04.28-.06,0,0,.03,0,.04,0,3.82-.47,23.54,3.85,23.73,5.03Z"/>
        <path class="cls-2" d="M216.75,32.49c-.1.34-.42.71-.75.75-3.06.39-6.29.92-9.39.78-2.58-.13-5.44-3.53-6.24,1.28-.24,1.46,1.07,4.99.63,5.42-2.78,2.67-14.54-14.11-17.05-15.89l-.21-4.31c-.51-.75-12.59,8.23-16.12,8.23h-19.87s-.04.01-.06.04c-.31.57.78,6.93-.92,9.47-2.03,3.01-12.45,4.41-15.13,1.71-.87-.87-1.18-3.23-2.15-4.59-3.73-5.26-7.77-7.21-4.99-14.11,6.77.48,25.48,2.42,30.95,1.32,1.06-.21,10.3-4.68,10.63-5.23,1.28-2.17-2.56-5.39-1.86-6.66.11-.18,5.5-3.2,6.18-3.01,1.42.42,1.42,4.37,3.06,5.21l11.41-7.32c3.05,9.39,10.43,10.54,17.85,15.83,4.69,3.33,9.46,8.27,14.02,11.08Z"/>
        <path class="cls-2" d="M61.48,246.96l-26.73,36.82c-1.11-.88-6.74-4.09-6.74-4.86.07-1.02,24.95-27.89,23.72-29.3-72.45-60.96-45.99-31.49-6.22-97.75-6.28-8.02,15.65,8.36,15.65,8.36,0,0-12.47,14.08-17.48,17.62-3.27,2.32-10.17,2.71-13.3,5.22-3.65,2.93-12,14.39-10.59,18.85,1.65,5.22,16.79,18.56,21.99,16.87,12.3-4,37.64-43.3,37.64-43.3l14.33,12.39-39.98,52.32s7.62,4.48,7.7,6.75Z"/>
        <path class="cls-2" d="M162.92,359.29l-8.32,10.53c-.33.44-.95.54-1.4.21l-40.37-29.87c-.45-.33-.54-.97-.2-1.42l9.74-11.99c.34-.44.98-.52,1.42-.17l38.95,31.33c.42.34.5.94.18,1.37Z"/>
        <path class="cls-2" d="M117.71,25.72c-.53.46-10.64,1.1-13.76,2.37-5.66,2.31-11.82,10.81-17.5,14.02l-18.2-3.62c2.12-2.67,13.16-18.07,14.78-18.55,3.89-1.16,20.71,1.44,21.86-1.41.38-.92,0-2.43.88-3.25,1.18-.59,3.38-.64,6.99,0,1.12.35-.09,4.36.34,4.78.21.21,2.73.41,3.9.48.07,0,.14,0,.21.02.45.09.72.41.88.86.52,1.45-.23,4.18-.38,4.31Z"/>
        <path class="cls-2" d="M242.57,55.34c-.38,0-.74-.02-1.05-.04h-.03c-.71-.06-1.24-.16-1.49-.34.86.2,1.71.32,2.57.38Z"/>
        <path class="cls-2" d="M352.51,73.29c.09,7.94,5.26,17.77.37,24.33-5.76,7.73-22.65,3.42-34.51,17.21-8.56,8.8-15.09,28.7-28.56,30.63-14.01,2.01-15.87-5.32-26.66-10.69-16.5-8.2-33.74-11.54-52.03-12.28-1.97-.08-12.35,1.79-13.08.54-1.11-7.75,6.54-12.06,12.48-15.53,31-18.12,80.08-16.18,103.73-43.19,3.33-3.81,9.43-14.82,14.28-16.47.66-.22,10.6.44,12.02.7,1.16.22,7.72,2.68,8.73,3.26,7.1,4.12,3.16,15.3,3.23,21.49Z"/>
        <path class="cls-2" d="M178.52,166.15c-.52,11.18-6.34,22.26-13.55,30.64-5.91,6.9-14.74,15.98-23.16,7.45l-52.74-46.91c.98-9.57-7.59-26.2-5.66-34.46,1.09-4.68,11.5-11.01,16.02-10.01.75.16,5.35,8.63,6.77,10.15.74.78,9.47,7.68,10.07,7.92,8.94,3.52,19.43-6.2,23.42-5.45,3.49.66,11.25,13.99,15.93,17.07,5.06,3.32,19.62,4.73,21.75,9.74.8,1.89,1.27,11.36,1.15,13.86Z"/>
        <path class="cls-2" d="M197.96,56.78c-2.67,5.01,1.86,9.83,1.54,11.25-.63,2.77-9.85-2.46-10.34,3.88-.35,4.67,11.21,6.45,6.97,10.74-2.02,2.04-14.22-2.2-19.55,2.95-2.54,2.45.35,10.67-2.23,11.27-.57.13-4.29-1.98-6.04-2.17-6.32-.72-13.27.94-19.51-.75-.98-.77-2.43-14.21-3.67-17.29-.37-.91-4.62-8.7-5.16-9.46-1.82-2.61-8.6-6.96-8.76-7.52-.42-1.44,1.93-12.66,3.01-13.36,2.26-1.46,5.96,1.01,8.98.01.38-.13,6.19-3.99,6.54-4.36,2.06-2.18,1.87-4.76,2.92-6.45,1.81-2.91,13.64-1.01,17.78-1.71,3.77-.64,9.74-5.59,11.58-5.68,1.46-.07,10.58,12.1,13.79,14.41,3.5,2.52,19.05,7.73,19.32,9.14,1.43,7.38-13.57-1.62-17.17,5.1Z"/>
        <path class="cls-2" d="M311.69,57.98c-1.67,5.56-16.78,15.83-22.2,18.29-28.26,12.84-60.23,14.11-86.47,31.23-1.52.99-6.5,5.74-6.95,5.82-1.09.17-2.59-2.7-4.07-3.72-.09-.06-.19-.12-.29-.18-1.46-.96-.84-1.28.92-1.32h.12c3.99-.11,5.94-.48,8.65-3.72,6.97-8.31-5.03-13.3.68-17.3,3.21-2.25,6.82,4.38,9.65,3.73,4.58-3.01,2.59-8.35,1.28-12.65,5.2,2.61,14.02,5.97,15.01-2.61.95-8.24-7.25-11.03-7.55-14.28-.66-6.99,9.39.35,12.03,1.56,2.04.95,5.63,3.05,6.95,3.53,7.69,2.76,12.9-2.26,19.87-3.73,7.97-1.68,13.34-.39,21.49-4.03.81-.36.94-1.93,1.73-2.16,4.81-1.39,19.07.67,25.38.07.33-.03,5.47-4.21,3.77,1.47Z"/>
        <path class="cls-2" d="M231.75,159.39c-.25,2.11-6.19,13.73-7.52,14.95-8.01,7.4-28.74,1.85-35.73-5.1-7.26-7.22-7.33-20.81-2.62-29.43,7.21-13.23,21.54-14.12,34.4-8.64,10.58,4.51,12.7,17.92,11.47,28.22Z"/>
        <path class="cls-2" d="M136.37,117.33c-4.15,7.03-13.73,13.82-21.87,9.37-10.76-5.87-12.02-27.84-8.58-38.26,2.37-7.2,11.09-20.23,19.15-21.34,11.09-1.53,15.66,13.53,16.47,22.13.6,6.37-1.96,22.66-5.17,28.1Z"/>
        <path class="cls-2" d="M215.58,295.74c-.04,3.55,1.28,6.36,1.96,7.56.22.39.15.87-.16,1.18l-23.82,24.5c-.34.35-.89.41-1.29.12-3.91-2.77-23.28-16.47-29.15-20.21-.56-.36-.62-1.16-.11-1.59l36.37-31.61c.35-.31.87-.33,1.25-.05l16.09,11.83c.36.27.5.74.34,1.16-.49,1.28-1.44,4.13-1.47,7.12Z"/>
        <path class="cls-2" d="M262.48,326.64l-34.03,30.81c-.36.32-.89.35-1.28.05l-27.03-20.63c-.47-.36-.53-1.05-.12-1.48l22.98-24.61c.3-.32.77-.41,1.17-.22,1.53.76,5.67,2.51,10.89,2.35,4.68-.15,8.34-1.55,9.68-2.14.35-.15.74-.09,1.03.15,2.47,2.06,13.7,11.43,16.74,14.24.43.4.42,1.08-.01,1.47Z"/>
        <path class="cls-2" d="M312.95,295.92l-42.06,34.28c-24.4,22.83-54.65,44.77-79.74,66.81-3.6-3-21.68-14.41-25.85-17.66-.39-.31-.5-.85-.25-1.29l6.88-9.35c.3-.53,1-.66,1.48-.29,4.3,3.38,23.72,15.6,27.82,18.34.38.25.88.21,1.21-.1,3.99-3.77,28.17-26.63,39.82-37.51,6.09-5.69,55.78-48.13,62.62-53.97.43-.37.47-1.01.09-1.42-2.16-2.38-11.25-13.61-13.62-16.55-.32-.4-.29-.98.08-1.34.8-.78,2.13-2.04,2.57-2.33,5.92,6.77,12.42,12.18,17.49,19.09.54.74,1.92,2.48,1.46,3.29Z"/>
        <path class="cls-2" d="M262.5,330.43c-.09.08-.19.17-.28.25-.1.08-.2.14-.28.19.19-.15.37-.29.56-.44Z"/>
        <path class="cls-2" d="M190.86,125.3c-.47,1.16-12.1,14.05-13.6,14.88-14.91,8.26-35.24-14.59-33.07-29.28.65-4.42,3.76-10.61,8.61-11.61,2.66-.54,13.45-.54,15.91.24,4.04,1.29,4.03,6.37,7.17,9.31,5,4.69,19.71,4.75,14.98,16.46Z"/>
        <path class="cls-2" d="M296.14,297.08l-24.86,20.72c-.38.31-.92.31-1.29-.01l-18.14-15.67c-.34-.29-.44-.76-.26-1.17.54-1.19,1.53-3.9,1.26-7.21-.34-4.1-1.18-6.47-1.65-7.52-.18-.4-.08-.88.25-1.17l17.59-15.3c.4-.34.99-.32,1.36.05l25.81,25.82c.42.42.38,1.1-.07,1.48Z"/>
        <path class="cls-2" d="M216.25,192.58c-13.77,7.52-21.44,17.35-38.91,17.36-4.3,0-9.37-1.96-13.84-1.52-2.1-2.04,10.99-15.79,12.63-18.46,1.68-2.75,6.51-16.07,8.13-16.62,3.31-1.14,4.92,2,7.31,2.94,6.91,2.74,14.08,5.06,21.59,4.23,4.01-.44,16.62-6.63,18.46-1.53,3.19,8.89-10.09,10.72-15.37,13.6Z"/>
        <path class="cls-2" d="M98.82,104.93c-2.37,3.39-14.45,3.91-17.63,11.23-1.33,3.08-2.5,12.97-2.29,16.28.14,2.19,5.53,17.31-.68,14.8-.95-.39-12.64-9.54-12.98-10.31-4.97-11.42-.96-33.36,9.06-41.13,2.48-1.92,6.27-3.43,9.05-5.19,4.35-2.77,11.16-10.64,16.47-6.16,2.3,1.94.59,18.22-1,20.48Z"/>
        <path class="cls-2" d="M261.72,259.73l-18.44,18.39c-.36.36-.93.4-1.32.08-1.24-1-4.26-2.92-8.97-2.75-4.23.14-7.14,1.86-8.34,2.71-.38.27-.89.23-1.23-.08l-11.76-10.48c-.47-.42-.44-1.16.06-1.54l33.9-25.65c.43-.32,1.03-.25,1.37.16l14.8,17.81c.33.4.3.98-.06,1.35Z"/>
        <path class="cls-2" d="M128.31,47.09c-.06,15.16-7.45,15.53-18.58,20.45-1.8.79-3.19,2.95-5.46,3.54-3.02.78-13.74,1.19-14.87-2.41-2.13-6.75,1.98-8.77,3.64-13.3,2.68-7.3,6.28-21.39,15.5-23.45,9.58-2.15,19.8,5.17,19.77,15.17Z"/>
        <path class="cls-2" d="M255.08,156.47c-3.47,3.19-16.35,19.6-19.35,19.62-7.18.04.05-14.88.47-17.51.7-4.32.23-12.43-1.3-16.57-1.51-4.08-6.14-7.98-5.4-12.95.45-.46,11.29,1.47,12.78,1.84,3.04.76,25.37,9.05,26.11,10.25,3.22,5.24-9.74,12.04-13.31,15.32Z"/>
        <path class="cls-2" d="M120.28,262.23c-20.43,1.81-22.35-27.35-4.21-29.66,21.3-2.72,23.16,27.98,4.21,29.66Z"/>
        <path class="cls-2" d="M166.48,354.2l-31.62-24.43c-.46-.36-.52-1.03-.13-1.46l6.16-6.85c.35-.38.93-.44,1.34-.13l31.41,23.48c.45.33.53.97.2,1.41l-5.95,7.8c-.34.44-.97.52-1.41.18Z"/>
        <path class="cls-2" d="M261.57,239l-1.06.73c-.4.28-.95.22-1.29-.13l-9.81-10.23c-.35-.36-.91-.41-1.32-.11l-40.4,29.93c-.41.3-.99.25-1.33-.13-.69-.76-1.88-2.02-2.91-2.94-.46-.41-.44-1.14.05-1.52l43.42-34.48c.42-.33,1.02-.28,1.37.13,4.49,5.16,11.09,14.58,13.47,17.28.4.45.31,1.14-.19,1.48Z"/>
        <path class="cls-2" d="M196.83,267.08l-54.32,43.45c-.4.32-.96.29-1.33-.07l-7.81-7.77c-.42-.42-.39-1.11.07-1.49l53.6-44.03c.39-.32.95-.3,1.32.04l8.53,8.35c.44.42.42,1.13-.06,1.51Z"/>
        <path class="cls-2" d="M210.71,372.81l-5.7,5.99c-.33.35-.87.41-1.28.14l-25.97-17.2c-.48-.32-.59-.96-.25-1.43l5.81-7.92c.33-.45.96-.54,1.4-.21l25.86,19.13c.48.36.54,1.06.13,1.49Z"/>
        <path class="cls-2" d="M136.33,266.93l-12.24,15.07c-.34.41-.94.49-1.37.18l-16.89-12.32c-.44-.32-.54-.93-.23-1.38l1.23-1.76c.28-.4.81-.55,1.25-.33,1.78.89,6.63,2.86,13.04,1.98,5.18-.71,9.31-3.88,10.81-5.18.36-.31.9-.32,1.27-.02l2.97,2.33c.44.35.51.98.16,1.42Z"/>
        <path class="cls-2" d="M235.21,303.33c-12.47,1.64-14.81-16.26-3.66-18.39,13.27-2.53,15.69,16.8,3.66,18.39Z"/>
        <path class="cls-2" d="M224.06,75.72c-5,4.74-20.08-7.25-22.23-12.98-6.62-17.64,28.91,6.66,22.23,12.98Z"/>
        <path class="cls-2" d="M197.07,101.93c-5.11,5.39-17.14-1.64-17.8-8.49-1.16-11.97,17.51-5.15,18.7,3.13.2,1.43.1,4.31-.9,5.36Z"/>
        <path class="cls-2" d="M288.62,269.68c-.48.37-.99.8-1.4,1.15s-1.04.31-1.4-.1l-22.67-25.92c-.36-.41-.32-1.04.08-1.4l1.51-1.36c.42-.38,1.06-.34,1.42.09,3,3.47,15.41,17.85,22.61,26.1.38.44.31,1.1-.15,1.45Z"/>
        <path class="cls-2" d="M209.65,85.67c-1.01,1.56-6.21-2.74-7.51-3.79-1.4-1.12-9.84-8.52-8.64-9.71,2.42-2.37,20.37,6.97,16.15,13.5Z"/>
        <path class="cls-2" d="M262.5,330.43c-.09.08-.19.17-.28.25-.1.08-.2.14-.28.19.19-.15.37-.29.56-.44Z"/>
        <path class="cls-2" d="M242.57,55.34c-.38,0-.74-.02-1.05-.04h-.03c-.47-.09-.97-.2-1.49-.34.86.2,1.71.32,2.57.38Z"/>
        <path class="cls-2" d="M80.21,278.94l-10.59-8.32c-.44-.35-1.08-.26-1.42.18l-4.19,5.53c-.32.43-.93.52-1.37.22l-1.88-1.31c-.47-.33-.57-.99-.21-1.45l7.31-9.12c.34-.43.97-.5,1.4-.16l13.59,10.68c.41.32.5.89.22,1.33l-1.4,2.18c-.32.5-1,.61-1.46.24Z"/>
        <rect class="cls-2" x="84.11" y="251.09" width="5.03" height="23.1" rx="1" ry="1" transform="translate(-175.14 173.4) rotate(-52.92)"/>
        <rect class="cls-2" x="108.45" y="269.49" width="5.03" height="23.1" rx="1" ry="1" transform="translate(-180.15 200.12) rotate(-52.92)"/>
        <path class="cls-2" d="M139.5,229.18l14.67,11.97c.4.35.45.96.12,1.37l-13.23,17.26c-.34.42-.96.5-1.39.17l-2.87-2c-.39-.3-.51-.84-.27-1.27.97-1.74,4.32-5.81,3.74-12.24-.47-5.21-3.46-9.47-4.68-11.03-.3-.38-.28-.91.03-1.27l2.47-2.87c.36-.42,1.01-.47,1.42-.09Z"/>
        <path class="cls-2" d="M100.87,226.99l13.89-16.17c.35-.4.95-.46,1.37-.13l16.49,12.85c.43.33.51.95.19,1.39l-2.46,3.22c-.29.39-.83.52-1.26.29-1.76-.94-6.54-3.07-12.97-2.4-5.2.54-9.43,3.59-10.96,4.83-.37.3-.91.29-1.27-.02l-2.9-2.43c-.43-.36-.48-1-.11-1.42Z"/>
        <path class="cls-2" d="M95.54,234.75l-11.87,15.37c-.33.42-.26,1.02.14,1.37l15.85,13.63c.41.35,1.03.31,1.4-.09l1.43-1.6c.33-.37.35-.92.03-1.3-1.27-1.53-4.3-5.8-4.91-12.24-.49-5.2,1.65-9.95,2.57-11.7.22-.42.11-.95-.27-1.25l-2.95-2.36c-.44-.35-1.07-.27-1.42.17Z"/>
        <rect class="cls-2" x="71.91" y="235.35" width="23.1" height="5.03" rx="1" ry="1" transform="translate(-156.63 161.03) rotate(-52.92)"/>
        <rect class="cls-2" x="91.19" y="211.28" width="23.1" height="5.03" rx="1" ry="1" transform="translate(-126.76 153.84) rotate(-49.69)"/>
        <path class="cls-2" d="M65.38,261.87l-7.89,10.38c-.33.44-.96.53-1.4.19l-2.41-1.83c-.44-.33-.53-.96-.19-1.4l7.89-10.38c.33-.44.96-.53,1.4-.19l2.41,1.83c.44.33.53.96.19,1.4Z"/>
        <path class="cls-2" d="M81.39,220.77l-15.3,20.27c-.33.44-.96.53-1.4.19l-3.97-3.04c-.44-.33-.53-.96-.19-1.4l15.3-20.27c.33-.44.96-.53,1.4-.19l3.97,3.04c.44.33.53.96.19,1.4Z"/>
        <path class="cls-2" d="M101.26,194.5l-15.3,20.27c-.33.44-.96.53-1.4.19l-3.97-3.04c-.44-.33-.53-.96-.19-1.4l15.3-20.27c.33-.44.96-.53,1.4-.19l3.97,3.04c.44.33.53.96.19,1.4Z"/>
      </g>
    </g>
    <polygon class="cls-3" points="384.5 397.01 .5 397.01 1.5 .5 385.5 .5 384.5 397.01"/>
  </g>
  <g id="Layer_5" data-name="Layer 5">
    <polygon class="cls-1" points="176.38 363.34 178.44 349.01 165.45 355.4 168.64 357.72 157.44 373.15 161.99 376.45 173.19 361.02 176.38 363.34"/>
    <polygon class="cls-1" points="117.13 320.53 118.25 307.03 106.02 312.85 109.26 315.09 99.32 329.49 103.94 332.68 113.89 318.29 117.13 320.53"/>
  </g>
</svg>