<?xml version="1.0" encoding="UTF-8"?>
<svg xmlns="http://www.w3.org/2000/svg" viewBox="0 0 384.39 398.25">
  <defs>
    <style>
      .cls-1 {
        fill: #6cc261;
      }

      .cls-2 {
        opacity: .31;
      }

      .cls-3 {
        fill: #fff1c9;
      }

      .cls-4 {
        fill: none;
        stroke: #255c19;
        stroke-miterlimit: 10;
        stroke-width: .5px;
      }

      .cls-5 {
        fill: #39922c;
      }
    </style>
  </defs>
  <g id="Sfondo">
    <path class="cls-3" d="M308.63,293.97c.34-.28.46-.75.28-1.16-1.86-4.22-15.76-17.63-16.42-19.59l-.19-.41c-1.36-1.49-2.87-2.63-4.3-4.26-.06.04-.23-.06-.49-.27-2.93-2.41-17.41-19.56-23.65-26.99-1.76-2.1-17.69-22.27-17.69-22.27-2-2.31-5.69-6.14-7.38-7.87-.45-.46-.35-1.23.21-1.56l138.07-81.48c.38-.23.57-.68.46-1.11-1.96-7.5-18.49-70.89-18.46-70.95.04-.76-5.38-10.33-6.1-11.6-.05-.09-.12-.17-.2-.25l-25.86-23.3c-.5-.45-1.29-.29-1.58.32l-8.9,19.21c-.14.29-.4.5-.72.56l-39.22,7.6c-.06.01-.13.02-.19.02h-20.91c-.1,0-.21-.02-.31-.05l-17.6-5.69s-.08-.03-.12-.05l-19.86-9.34c-.3-.16-1.37-.93-2.1-1.4l-.26-.16c-1.78-1.06-25.1-15.94-27.76-17.64-.16-.1-.29-.25-.37-.43l-3.19-6.97c-.25-.54-.92-.75-1.43-.44l-28.21,17.16c-.18.11-.4.16-.62.14l-30.54-2.98s-.04,0-.06,0c-1.09-.04-35.54-1.19-40.55-1.36-.34-.01-.65.14-.84.42-1.9,2.72-13.96,17.11-14.78,18.1-.03.04-.06.07-.08.12l-2.61,4.3s-.04.07-.07.1l-37.03,47.19c-2.81,3.65-21.58,25.95-23.84,30.92-.2.43-.04.94.34,1.21l39.12,27.67.23.12c.33.17,1.38.84,2.16,1.34.49.32.61.98.25,1.45L5.69,203.89c-.34.44-.26,1.06.18,1.4,6.83,5.21,48.75,35.22,53.65,40.48.32.34.34.86.07,1.24l-25.78,35.49c-.31.43-.23,1.02.19,1.36,3.68,2.95,15.74,12.66,17.04,12.79l59.91,42.26h.01s40.82,30.64,40.82,30.64l.74.56c3.71,2.74,7.33,5.41,10.92,8.05,9.07,6.65,16.89,12.13,26.13,19.16.41.32,1,.26,1.35-.12l.3-.33s.06-.06.09-.09c1.48-1.26,112.11-98.43,117.33-102.81Z"/>
  </g>
  <g id="Scale" class="cls-2">
    <line class="cls-4" x1="55.14" y1="107.18" x2="64.18" y2="112.83"/>
    <line class="cls-4" x1="58.35" y1="99.54" x2="66.75" y2="104.97"/>
    <line class="cls-4" x1="65.59" y1="91.7" x2="72.23" y2="97.05"/>
    <line class="cls-4" x1="72.23" y1="85.51" x2="81.63" y2="92.71"/>
    <line class="cls-4" x1="75.17" y1="83.67" x2="93.33" y2="85.51"/>
    <line class="cls-4" x1="74.33" y1="83.26" x2="89.33" y2="66.49"/>
    <line class="cls-4" x1="81.63" y1="56.93" x2="91.76" y2="60.75"/>
    <line class="cls-4" x1="84.25" y1="51.9" x2="97.75" y2="53.51"/>
    <line class="cls-4" x1="86.69" y1="47.3" x2="101.57" y2="45.07"/>
    <line class="cls-4" x1="91" y1="32.6" x2="99.44" y2="38.23"/>
    <line class="cls-4" x1="97.75" y1="26.77" x2="103.99" y2="34.21"/>
    <line class="cls-4" x1="107.06" y1="24.36" x2="109.21" y2="36.83"/>
    <line class="cls-4" x1="112.23" y1="24.36" x2="113.23" y2="34.21"/>
    <line class="cls-4" x1="115.04" y1="24.36" x2="124.09" y2="25.57"/>
    <line class="cls-4" x1="115.85" y1="21.95" x2="124.09" y2="23"/>
    <line class="cls-4" x1="116.21" y1="25.22" x2="115.85" y2="34.21"/>
    <line class="cls-4" x1="121.42" y1="25.57" x2="118.06" y2="34.21"/>
    <line class="cls-4" x1="124.89" y1="29.71" x2="119.74" y2="36.83"/>
    <line class="cls-4" x1="131.73" y1="36.83" x2="124.09" y2="38.23"/>
    <line class="cls-4" x1="95.95" y1="103.35" x2="107.06" y2="103.35"/>
    <line class="cls-4" x1="99.21" y1="94.92" x2="107.4" y2="95.72"/>
    <line class="cls-4" x1="103.99" y1="70.08" x2="105.59" y2="74.55"/>
    <line class="cls-4" x1="112.73" y1="78.41" x2="105.59" y2="74.55"/>
    <line class="cls-4" x1="116.77" y1="75.42" x2="108.13" y2="66.49"/>
    <line class="cls-4" x1="119.97" y1="71.3" x2="116.21" y2="62.01"/>
    <line class="cls-4" x1="124.89" y1="70.08" x2="121.42" y2="58.84"/>
    <line class="cls-4" x1="124.89" y1="55.94" x2="127.91" y2="68.59"/>
    <line class="cls-4" x1="133.13" y1="59.74" x2="127.91" y2="68.59"/>
    <line class="cls-4" x1="126.4" y1="54.5" x2="133.13" y2="55.94"/>
    <line class="cls-4" x1="126.4" y1="51.9" x2="131.73" y2="53.51"/>
    <line class="cls-4" x1="126.4" y1="48.89" x2="134.74" y2="51.07"/>
    <line class="cls-4" x1="134.74" y1="39.84" x2="134.74" y2="45.36"/>
    <line class="cls-4" x1="137.15" y1="39.84" x2="136.95" y2="46.18"/>
    <line class="cls-4" x1="140.13" y1="38.23" x2="140.13" y2="47.3"/>
    <line class="cls-4" x1="107.06" y1="90.3" x2="97.75" y2="89.11"/>
    <line class="cls-4" x1="127.91" y1="119.93" x2="131.73" y2="130.1"/>
    <line class="cls-4" x1="133.13" y1="117.03" x2="137.15" y2="126.68"/>
    <line class="cls-4" x1="150.62" y1="128.49" x2="145.6" y2="134.12"/>
    <line class="cls-4" x1="146.6" y1="109.19" x2="134.74" y2="107.18"/>
    <line class="cls-4" x1="146.6" y1="103.35" x2="136.95" y2="99.54"/>
    <line class="cls-4" x1="145.6" y1="116.23" x2="133.13" y2="112.83"/>
    <line class="cls-4" x1="153" y1="92.71" x2="154.44" y2="99.54"/>
    <line class="cls-4" x1="160.07" y1="90.3" x2="159.87" y2="99.54"/>
    <line class="cls-4" x1="168.66" y1="92.71" x2="165.9" y2="100.55"/>
    <line class="cls-4" x1="138.56" y1="89.7" x2="149.62" y2="87.68"/>
    <line class="cls-4" x1="137.15" y1="82.6" x2="146.6" y2="79.44"/>
    <line class="cls-4" x1="134.34" y1="74.62" x2="146.6" y2="68.59"/>
    <line class="cls-4" x1="173.8" y1="95.32" x2="178.44" y2="95.32"/>
    <line class="cls-4" x1="173.8" y1="91.7" x2="178.44" y2="91.7"/>
    <line class="cls-4" x1="173.8" y1="87.68" x2="178.44" y2="89.7"/>
    <line class="cls-4" x1="176.12" y1="83.67" x2="181.14" y2="87.68"/>
    <line class="cls-4" x1="181.14" y1="81.02" x2="183.39" y2="87.68"/>
    <line class="cls-4" x1="185.6" y1="81.02" x2="185.6" y2="87.08"/>
    <line class="cls-4" x1="189.39" y1="82.6" x2="187.14" y2="87.68"/>
    <line class="cls-4" x1="195.02" y1="92.71" x2="199.5" y2="89.7"/>
    <line class="cls-4" x1="195.02" y1="95.32" x2="201.88" y2="92.71"/>
    <line class="cls-4" x1="195.05" y1="97.73" x2="203.49" y2="97.05"/>
    <line class="cls-4" x1="194.45" y1="100.15" x2="201.88" y2="102.26"/>
    <line class="cls-4" x1="192.03" y1="101.96" x2="197.26" y2="106.31"/>
    <line class="cls-4" x1="189.42" y1="101.55" x2="193.64" y2="109.19"/>
    <line class="cls-4" x1="193.64" y1="82.6" x2="200.34" y2="88.69"/>
    <line class="cls-4" x1="194.45" y1="79.44" x2="203.49" y2="87.08"/>
    <line class="cls-4" x1="196.43" y1="68.41" x2="196.99" y2="74.62"/>
    <line class="cls-4" x1="193.64" y1="66.65" x2="195.02" y2="73.41"/>
    <line class="cls-4" x1="188.27" y1="68.41" x2="195.02" y2="73.41"/>
    <line class="cls-4" x1="187.14" y1="72.31" x2="194.65" y2="74.55"/>
    <line class="cls-4" x1="189.42" y1="78.41" x2="195.05" y2="75.42"/>
    <line class="cls-4" x1="204.5" y1="89.11" x2="204.3" y2="82.6"/>
    <line class="cls-4" x1="210.13" y1="92.71" x2="206.91" y2="84.35"/>
    <line class="cls-4" x1="215.25" y1="89.11" x2="206.91" y2="83.26"/>
    <line class="cls-4" x1="215.25" y1="83.26" x2="206.91" y2="81.02"/>
    <line class="cls-4" x1="213.73" y1="79.44" x2="205.85" y2="79.44"/>
    <line class="cls-4" x1="184.08" y1="114.17" x2="192.05" y2="108.83"/>
    <line class="cls-4" x1="185.6" y1="117.03" x2="193.64" y2="109.19"/>
    <line class="cls-4" x1="188.27" y1="119.93" x2="195.02" y2="111.5"/>
    <line class="cls-4" x1="196.19" y1="66.65" x2="203.49" y2="64.46"/>
    <line class="cls-4" x1="194.33" y1="63.36" x2="201.88" y2="62.26"/>
    <line class="cls-4" x1="192.23" y1="58.84" x2="201.88" y2="60.75"/>
    <line class="cls-4" x1="196.19" y1="55.22" x2="201.88" y2="58.84"/>
    <line class="cls-4" x1="199.27" y1="51.9" x2="201.88" y2="58.84"/>
    <line class="cls-4" x1="204.5" y1="51.9" x2="204.3" y2="58.84"/>
    <line class="cls-4" x1="208.52" y1="52.71" x2="206.91" y2="58.84"/>
    <line class="cls-4" x1="221.58" y1="60.75" x2="216.32" y2="63.36"/>
    <line class="cls-4" x1="224.6" y1="63.36" x2="216.32" y2="65.56"/>
    <line class="cls-4" x1="227.92" y1="68.41" x2="217.56" y2="67.58"/>
    <line class="cls-4" x1="230.56" y1="73.41" x2="220.46" y2="70.95"/>
    <line class="cls-4" x1="229.42" y1="79.44" x2="221.58" y2="73.41"/>
    <line class="cls-4" x1="224.6" y1="82.6" x2="220.46" y2="73.43"/>
    <line class="cls-4" x1="218.95" y1="83.67" x2="217.56" y2="72.18"/>
    <line class="cls-4" x1="213.73" y1="81.02" x2="213.73" y2="71.6"/>
    <line class="cls-4" x1="188.27" y1="121.86" x2="198.11" y2="130.1"/>
    <line class="cls-4" x1="184.08" y1="119.93" x2="198.45" y2="119.93"/>
    <line class="cls-4" x1="185.6" y1="125.98" x2="194.33" y2="132.31"/>
    <line class="cls-4" x1="182.27" y1="129.14" x2="189.97" y2="135.53"/>
    <line class="cls-4" x1="176.12" y1="134.12" x2="189.97" y2="142.36"/>
    <line class="cls-4" x1="172.53" y1="154.62" x2="185.6" y2="148.59"/>
    <line class="cls-4" x1="174.75" y1="160.65" x2="188.27" y2="157.24"/>
    <line class="cls-4" x1="172.53" y1="170.1" x2="188.06" y2="165.88"/>
    <line class="cls-4" x1="171.69" y1="177.35" x2="181.14" y2="184.98"/>
    <line class="cls-4" x1="166.41" y1="184.98" x2="176.12" y2="194.22"/>
    <line class="cls-4" x1="163.89" y1="191.01" x2="171.26" y2="199.12"/>
    <line class="cls-4" x1="167.58" y1="205.48" x2="167.58" y2="214.67"/>
    <line class="cls-4" x1="178.63" y1="205.48" x2="178.63" y2="215.62"/>
    <line class="cls-4" x1="184.08" y1="205.48" x2="186.12" y2="215.62"/>
    <line class="cls-4" x1="192.23" y1="203.27" x2="199.5" y2="213.01"/>
    <line class="cls-4" x1="198.16" y1="199.12" x2="204.5" y2="207.2"/>
    <line class="cls-4" x1="207.71" y1="194.22" x2="213.73" y2="201.42"/>
    <line class="cls-4" x1="215.25" y1="189.91" x2="220.46" y2="197.82"/>
    <line class="cls-4" x1="222.74" y1="187.38" x2="226.61" y2="195.07"/>
    <line class="cls-4" x1="226.61" y1="184.98" x2="233.85" y2="189.91"/>
    <line class="cls-4" x1="229.42" y1="181.16" x2="238.5" y2="183.97"/>
    <line class="cls-4" x1="190.28" y1="180.15" x2="197.26" y2="170.1"/>
    <line class="cls-4" x1="205.85" y1="183.97" x2="207.71" y2="172.59"/>
    <line class="cls-4" x1="204.5" y1="130.1" x2="204.5" y2="119.93"/>
    <line class="cls-4" x1="211.08" y1="132.31" x2="213.73" y2="119.93"/>
    <line class="cls-4" x1="218.26" y1="134.12" x2="223.4" y2="120.85"/>
    <line class="cls-4" x1="222.74" y1="138.24" x2="231.06" y2="134.12"/>
    <line class="cls-4" x1="226.9" y1="145.31" x2="235.05" y2="144.17"/>
    <line class="cls-4" x1="225.51" y1="157.24" x2="236.86" y2="158.95"/>
    <line class="cls-4" x1="236.06" y1="135.53" x2="236.86" y2="119.93"/>
    <line class="cls-4" x1="245.3" y1="136.18" x2="246.31" y2="125.01"/>
    <line class="cls-4" x1="252.54" y1="138.24" x2="256.76" y2="127.49"/>
    <line class="cls-4" x1="259.17" y1="141.44" x2="265.61" y2="134.12"/>
    <line class="cls-4" x1="241.89" y1="162.66" x2="252.54" y2="170.1"/>
    <line class="cls-4" x1="249.32" y1="157.24" x2="257.77" y2="166.38"/>
    <line class="cls-4" x1="255.96" y1="151.61" x2="262.39" y2="161.81"/>
    <line class="cls-4" x1="278.47" y1="138.24" x2="274.23" y2="153.42"/>
    <line class="cls-4" x1="296.16" y1="138.24" x2="301.59" y2="145.83"/>
    <line class="cls-4" x1="314.45" y1="114.17" x2="322.9" y2="119.93"/>
    <line class="cls-4" x1="349.43" y1="94.01" x2="360.49" y2="83.26"/>
    <line class="cls-4" x1="348.23" y1="82.14" x2="359.28" y2="76.91"/>
    <line class="cls-4" x1="348.23" y1="67.58" x2="359.28" y2="65.56"/>
    <line class="cls-4" x1="341.39" y1="55.37" x2="343.2" y2="40.91"/>
    <line class="cls-4" x1="328.73" y1="55.37" x2="324.71" y2="39.84"/>
    <line class="cls-4" x1="322.9" y1="59.74" x2="314.45" y2="46.18"/>
    <line class="cls-4" x1="313.45" y1="72.18" x2="305.41" y2="62.01"/>
    <line class="cls-4" x1="307.82" y1="76.31" x2="298.88" y2="67.1"/>
    <line class="cls-4" x1="296.16" y1="84.35" x2="289.53" y2="70.95"/>
    <line class="cls-4" x1="284.9" y1="87.08" x2="279.68" y2="76.31"/>
    <line class="cls-4" x1="275.26" y1="92.71" x2="269.22" y2="81.02"/>
    <line class="cls-4" x1="267.4" y1="94.01" x2="259.17" y2="83.26"/>
    <line class="cls-4" x1="249.96" y1="97.73" x2="246.31" y2="87.68"/>
    <line class="cls-4" x1="239.79" y1="101.2" x2="237.21" y2="91.7"/>
    <line class="cls-4" x1="230.23" y1="104.13" x2="223.4" y2="94.01"/>
    <line class="cls-4" x1="220.46" y1="108.19" x2="213.73" y2="98.42"/>
    <line class="cls-4" x1="212.94" y1="112.41" x2="203.49" y2="104.13"/>
    <line class="cls-4" x1="212.4" y1="53.51" x2="220.46" y2="59.79"/>
    <line class="cls-4" x1="212.4" y1="51.07" x2="223.4" y2="59.79"/>
    <line class="cls-4" x1="226.61" y1="64.46" x2="233.85" y2="51.07"/>
    <line class="cls-4" x1="284.9" y1="57.03" x2="285.71" y2="49.98"/>
    <line class="cls-4" x1="255.96" y1="66.49" x2="252.54" y2="53.51"/>
    <line class="cls-4" x1="144.85" y1="35.3" x2="147.95" y2="41.44"/>
    <line class="cls-4" x1="153" y1="38.37" x2="145.6" y2="34.21"/>
    <line class="cls-4" x1="155.45" y1="35.3" x2="144.85" y2="29.71"/>
    <line class="cls-4" x1="158.86" y1="35.3" x2="150.62" y2="27.63"/>
    <line class="cls-4" x1="161.77" y1="36.29" x2="158.86" y2="26.57"/>
    <line class="cls-4" x1="165.1" y1="36.29" x2="164.9" y2="27.63"/>
    <line class="cls-4" x1="169.92" y1="36.29" x2="167.28" y2="26.57"/>
    <line class="cls-4" x1="174.75" y1="33.27" x2="171.26" y2="25.22"/>
    <path class="cls-4" d="M71.42,78.52c.44.9,1.2,1.65,2.11,2.07"/>
    <path class="cls-4" d="M70.5,73.15c-.08.88.02,1.77.29,2.61"/>
    <path class="cls-4" d="M71.62,67.96c-.38.82-.67,1.69-.86,2.58"/>
    <path class="cls-4" d="M74.43,64.35c-.58.54-1.12,1.14-1.59,1.77"/>
    <path class="cls-4" d="M79.22,62.36c-.91.31-1.78.75-2.58,1.29"/>
  </g>
  <g id="Layer_3" data-name="Layer 3">
    <g>
      <g id="Verde">
        <path class="cls-5" d="M353.25,106.89c1.94-1.49,8.7-11.26,8.66-15.68-.05-5.02-6.1-9.36-4.95-16.98.12-.76,2.91-13.28,1.71-18.27-.06-.25-.12-.48-.19-.71-2.04-6.62-13.12-13.36-19.65-14.83-12.79-2.86-16.86,4.9-27.2,9.16-15.26,6.3-32,1.45-47.99.39-2.12-.14-5.03.72-6.75-.75-1.25.73-2.49,1.51-3.75,2.25.01.13.03.26.06.38h0c.31,1.49,1.64,2.84,2.94,3.36.07.03.15.06.22.08.14.06.29.11.44.15,3.48,1.05,9.28.39,12.84.52,1,.04,2.01-.04,3,.01-.87,2.67-2.83,1.03-3.59.77-.06-.02-.12-.03-.16-.03-4.76-.02-8.21-.22-12.75-.75-1.5-.18-2.88-1.4-4.2-1.49-4.21-.26-6.71,1.23-11.53.33.31.02.67.04,1.05.04-.86-.06-1.71-.18-2.57-.38-5.3-1.4-4.8-3.65-7.99-5.88-9.36-6.55-8.36-3.75-14.51-14.33l1.5-.75c8.09,4.39,31.89,14.13,40.5,14.97.74.08,1.51-.04,2.25,0,1.48.09,3.02.02,4.5,0,11.35-.13,44.37-4.66,52.08-12.77,3.76-3.95,7.09-11.52,9.89-16.2.92-.22,7.39,5.34,8.62,6.36,3.62,3.02,20.22,18.44,21.66,21.12.65,1.2,2.01,1.51,1.92,2.86,1.2,3.34,1.93,6.89,2.95,10.31.02.06.03.11.05.17,4.93,16.25,9.35,31.13,13.9,47.51,1.22,3.28,4.6.07,5.45.63.31.2,1.49,7.73,2.73,8.47v.75l-3.57,1.34c-.78.29-1.14,1.21-.75,1.95l3.57,6.85c-41.26,22.66-82.78,44.96-123.75,68.13-7.83,2.14-14.92,6.35-22.4,9.33-.76.3-2.39-.63-3.84-.04-8.23,3.39-22.68,9.8-30.05,14.24-6.64,4-12.83,16.58-20.66,16.89-3.1.13-10.39-7.29-13.4-9.01-1.43-2.07-16.6-13.57-16.14-14.56,1.54-3.34,10.11.77,12.41,1.07,7.34.93,17.34.93,24.51-.9,9.3-2.37,13.34-9.14,21.07-13.4,5.17-2.86,14.55-4.75,18.47-7.77,3.95-3.04,11.51-14.86,15.76-19.45,4.55-4.91,18.16-18.05,23.75-20.47,4.95-2.14,18.18-1.5,25.15-4.13,18.67-7.04,17.78-34.91,42.3-38.59,0,0,13.14.25,16.43-2.27Z"/>
        <path class="cls-5" d="M87.8,47.43c-.38,1.9-3.8,12.38-4.68,12.88-.83.48-3.13-.1-4.92.71-8.11,3.68-11.75,9.99-7.88,18.69,1.55,3.49,6.61,1.77,6.18,4.3-.18,1.02-4.15,2.72-5.27,3.73-7.82,7.03-13.89,13.28-14.99,24.35l-29.24-22.45c12.16-15.83,24.42-31.48,36.75-47.17.09-.02.18-.04.28-.06,0,0,.03,0,.04,0,3.82-.47,23.54,3.85,23.73,5.03Z"/>
        <path class="cls-5" d="M215.25,31.99c-.1.34-.42.71-.75.75-3.06.39-6.29.92-9.39.78-2.58-.13-5.44-3.53-6.24,1.28-.24,1.46,1.07,4.99.63,5.42-2.78,2.67-14.54-14.11-17.05-15.89l-.21-4.31c-.51-.75-12.59,8.23-16.12,8.23h-19.87s-.04.01-.06.04c-.31.57.78,6.93-.92,9.47-2.03,3.01-12.45,4.41-15.13,1.71-.87-.87-1.18-3.23-2.15-4.59-3.73-5.26-7.77-7.21-4.99-14.11,6.77.48,25.48,2.42,30.95,1.32,1.06-.21,10.3-4.68,10.63-5.23,1.28-2.17-2.56-5.39-1.86-6.66.11-.18,5.5-3.2,6.18-3.01,1.42.42,1.42,4.37,3.06,5.21l11.41-7.32c3.05,9.39,10.43,10.54,17.85,15.83,4.69,3.33,9.46,8.27,14.02,11.08Z"/>
        <path class="cls-5" d="M59.98,246.46l-26.73,36.82c-1.11-.88-6.74-4.09-6.74-4.86.07-1.02,24.95-27.89,23.72-29.3-72.45-60.96-45.99-31.49-6.22-97.75-6.28-8.02,15.65,8.36,15.65,8.36,0,0-12.47,14.08-17.48,17.62-3.27,2.32-10.17,2.71-13.3,5.22-3.65,2.93-12,14.39-10.59,18.85,1.65,5.22,16.79,18.56,21.99,16.87,12.3-4,37.64-43.3,37.64-43.3l14.33,12.39-39.98,52.32s7.62,4.48,7.7,6.75Z"/>
        <path class="cls-5" d="M161.42,358.79l-8.32,10.53c-.33.44-.95.54-1.4.21l-40.37-29.87c-.45-.33-.54-.97-.2-1.42l9.74-11.99c.34-.44.98-.52,1.42-.17l38.95,31.33c.42.34.5.94.18,1.37Z"/>
        <path class="cls-5" d="M116.21,25.22c-.53.46-10.64,1.1-13.76,2.37-5.66,2.31-11.82,10.81-17.5,14.02l-18.2-3.62c2.12-2.67,13.16-18.07,14.78-18.55,3.89-1.16,20.71,1.44,21.86-1.41.38-.92,0-2.43.88-3.25,1.18-.59,3.38-.64,6.99,0,1.12.35-.09,4.36.34,4.78.21.21,2.73.41,3.9.48.07,0,.14,0,.21.02.45.09.72.41.88.86.52,1.45-.23,4.18-.38,4.31Z"/>
        <path class="cls-5" d="M241.07,54.84c-.38,0-.74-.02-1.05-.04h-.03c-.71-.06-1.24-.16-1.49-.34.86.2,1.71.32,2.57.38Z"/>
        <path class="cls-5" d="M351.01,72.79c.09,7.94,5.26,17.77.37,24.33-5.76,7.73-22.65,3.42-34.51,17.21-8.56,8.8-15.09,28.7-28.56,30.63-14.01,2.01-15.87-5.32-26.66-10.69-16.5-8.2-33.74-11.54-52.03-12.28-1.97-.08-12.35,1.79-13.08.54-1.11-7.75,6.54-12.06,12.48-15.53,31-18.12,80.08-16.18,103.73-43.19,3.33-3.81,9.43-14.82,14.28-16.47.66-.22,10.6.44,12.02.7,1.16.22,7.72,2.68,8.73,3.26,7.1,4.12,3.16,15.3,3.23,21.49Z"/>
        <path class="cls-5" d="M177.02,165.65c-.52,11.18-6.34,22.26-13.55,30.64-5.91,6.9-14.74,15.98-23.16,7.45l-52.74-46.91c.98-9.57-7.59-26.2-5.66-34.46,1.09-4.68,11.5-11.01,16.02-10.01.75.16,5.35,8.63,6.77,10.15.74.78,9.47,7.68,10.07,7.92,8.94,3.52,19.43-6.2,23.42-5.45,3.49.66,11.25,13.99,15.93,17.07,5.06,3.32,19.62,4.73,21.75,9.74.8,1.89,1.27,11.36,1.15,13.86Z"/>
        <path class="cls-5" d="M196.46,56.28c-2.67,5.01,1.86,9.83,1.54,11.25-.63,2.77-9.85-2.46-10.34,3.88-.35,4.67,11.21,6.45,6.97,10.74-2.02,2.04-14.22-2.2-19.55,2.95-2.54,2.45.35,10.67-2.23,11.27-.57.13-4.29-1.98-6.04-2.17-6.32-.72-13.27.94-19.51-.75-.98-.77-2.43-14.21-3.67-17.29-.37-.91-4.62-8.7-5.16-9.46-1.82-2.61-8.6-6.96-8.76-7.52-.42-1.44,1.93-12.66,3.01-13.36,2.26-1.46,5.96,1.01,8.98.01.38-.13,6.19-3.99,6.54-4.36,2.06-2.18,1.87-4.76,2.92-6.45,1.81-2.91,13.64-1.01,17.78-1.71,3.77-.64,9.74-5.59,11.58-5.68,1.46-.07,10.58,12.1,13.79,14.41,3.5,2.52,19.05,7.73,19.32,9.14,1.43,7.38-13.57-1.62-17.17,5.1Z"/>
        <path class="cls-5" d="M310.19,57.48c-1.67,5.56-16.78,15.83-22.2,18.29-28.26,12.84-60.23,14.11-86.47,31.23-1.52.99-6.5,5.74-6.95,5.82-1.09.17-2.59-2.7-4.07-3.72-.09-.06-.19-.12-.29-.18-1.46-.96-.84-1.28.92-1.32h.12c3.99-.11,5.94-.48,8.65-3.72,6.97-8.31-5.03-13.3.68-17.3,3.21-2.25,6.82,4.38,9.65,3.73,4.58-3.01,2.59-8.35,1.28-12.65,5.2,2.61,14.02,5.97,15.01-2.61.95-8.24-7.25-11.03-7.55-14.28-.66-6.99,9.39.35,12.03,1.56,2.04.95,5.63,3.05,6.95,3.53,7.69,2.76,12.9-2.26,19.87-3.73,7.97-1.68,13.34-.39,21.49-4.03.81-.36.94-1.93,1.73-2.16,4.81-1.39,19.07.67,25.38.07.33-.03,5.47-4.21,3.77,1.47Z"/>
        <path class="cls-5" d="M230.25,158.89c-.25,2.11-6.19,13.73-7.52,14.95-8.01,7.4-28.74,1.85-35.73-5.1-7.26-7.22-7.33-20.81-2.62-29.43,7.21-13.23,21.54-14.12,34.4-8.64,10.58,4.51,12.7,17.92,11.47,28.22Z"/>
        <path class="cls-5" d="M134.87,116.83c-4.15,7.03-13.73,13.82-21.87,9.37-10.76-5.87-12.02-27.84-8.58-38.26,2.37-7.2,11.09-20.23,19.15-21.34,11.09-1.53,15.66,13.53,16.47,22.13.6,6.37-1.96,22.66-5.17,28.1Z"/>
        <path class="cls-5" d="M214.08,295.24c-.04,3.55,1.28,6.36,1.96,7.56.22.39.15.87-.16,1.18l-23.82,24.5c-.34.35-.89.41-1.29.12-3.91-2.77-23.28-16.47-29.15-20.21-.56-.36-.62-1.16-.11-1.59l36.37-31.61c.35-.31.87-.33,1.25-.05l16.09,11.83c.36.27.5.74.34,1.16-.49,1.28-1.44,4.13-1.47,7.12Z"/>
        <path class="cls-5" d="M260.98,326.14l-34.03,30.81c-.36.32-.89.35-1.28.05l-27.03-20.63c-.47-.36-.53-1.05-.12-1.48l22.98-24.61c.3-.32.77-.41,1.17-.22,1.53.76,5.67,2.51,10.89,2.35,4.68-.15,8.34-1.55,9.68-2.14.35-.15.74-.09,1.03.15,2.47,2.06,13.7,11.43,16.74,14.24.43.4.42,1.08-.01,1.47Z"/>
        <path class="cls-5" d="M311.45,295.42l-42.06,34.28c-24.4,22.83-54.65,44.77-79.74,66.81-3.6-3-21.68-14.41-25.85-17.66-.39-.31-.5-.85-.25-1.29l6.88-9.35c.3-.53,1-.66,1.48-.29,4.3,3.38,23.72,15.6,27.82,18.34.38.25.88.21,1.21-.1,3.99-3.77,28.17-26.63,39.82-37.51,6.09-5.69,55.78-48.13,62.62-53.97.43-.37.47-1.01.09-1.42-2.16-2.38-11.25-13.61-13.62-16.55-.32-.4-.29-.98.08-1.34.8-.78,2.13-2.04,2.57-2.33,5.92,6.77,12.42,12.18,17.49,19.09.54.74,1.92,2.48,1.46,3.29Z"/>
        <path class="cls-5" d="M261,329.93c-.09.08-.19.17-.28.25-.1.08-.2.14-.28.19.19-.15.37-.29.56-.44Z"/>
        <path class="cls-5" d="M189.36,124.8c-.47,1.16-12.1,14.05-13.6,14.88-14.91,8.26-35.24-14.59-33.07-29.28.65-4.42,3.76-10.61,8.61-11.61,2.66-.54,13.45-.54,15.91.24,4.04,1.29,4.03,6.37,7.17,9.31,5,4.69,19.71,4.75,14.98,16.46Z"/>
        <path class="cls-5" d="M294.64,296.58l-24.86,20.72c-.38.31-.92.31-1.29-.01l-18.14-15.67c-.34-.29-.44-.76-.26-1.17.54-1.19,1.53-3.9,1.26-7.21-.34-4.1-1.18-6.47-1.65-7.52-.18-.4-.08-.88.25-1.17l17.59-15.3c.4-.34.99-.32,1.36.05l25.81,25.82c.42.42.38,1.1-.07,1.48Z"/>
        <path class="cls-5" d="M214.75,192.08c-13.77,7.52-21.44,17.35-38.91,17.36-4.3,0-9.37-1.96-13.84-1.52-2.1-2.04,10.99-15.79,12.63-18.46,1.68-2.75,6.51-16.07,8.13-16.62,3.31-1.14,4.92,2,7.31,2.94,6.91,2.74,14.08,5.06,21.59,4.23,4.01-.44,16.62-6.63,18.46-1.53,3.19,8.89-10.09,10.72-15.37,13.6Z"/>
        <path class="cls-5" d="M97.32,104.43c-2.37,3.39-14.45,3.91-17.63,11.23-1.33,3.08-2.5,12.97-2.29,16.28.14,2.19,5.53,17.31-.68,14.8-.95-.39-12.64-9.54-12.98-10.31-4.97-11.42-.96-33.36,9.06-41.13,2.48-1.92,6.27-3.43,9.05-5.19,4.35-2.77,11.16-10.64,16.47-6.16,2.3,1.94.59,18.22-1,20.48Z"/>
        <path class="cls-5" d="M260.22,259.23l-18.44,18.39c-.36.36-.93.4-1.32.08-1.24-1-4.26-2.92-8.97-2.75-4.23.14-7.14,1.86-8.34,2.71-.38.27-.89.23-1.23-.08l-11.76-10.48c-.47-.42-.44-1.16.06-1.54l33.9-25.65c.43-.32,1.03-.25,1.37.16l14.8,17.81c.33.4.3.98-.06,1.35Z"/>
        <path class="cls-5" d="M126.81,46.59c-.06,15.16-7.45,15.53-18.58,20.45-1.8.79-3.19,2.95-5.46,3.54-3.02.78-13.74,1.19-14.87-2.41-2.13-6.75,1.98-8.77,3.64-13.3,2.68-7.3,6.28-21.39,15.5-23.45,9.58-2.15,19.8,5.17,19.77,15.17Z"/>
        <path class="cls-5" d="M253.58,155.97c-3.47,3.19-16.35,19.6-19.35,19.62-7.18.04.05-14.88.47-17.51.7-4.32.23-12.43-1.3-16.57-1.51-4.08-6.14-7.98-5.4-12.95.45-.46,11.29,1.47,12.78,1.84,3.04.76,25.37,9.05,26.11,10.25,3.22,5.24-9.74,12.04-13.31,15.32Z"/>
        <path class="cls-5" d="M118.78,261.73c-20.43,1.81-22.35-27.35-4.21-29.66,21.3-2.72,23.16,27.98,4.21,29.66Z"/>
        <path class="cls-5" d="M164.98,353.7l-31.62-24.43c-.46-.36-.52-1.03-.13-1.46l6.16-6.85c.35-.38.93-.44,1.34-.13l31.41,23.48c.45.33.53.97.2,1.41l-5.95,7.8c-.34.44-.97.52-1.41.18Z"/>
        <path class="cls-5" d="M260.07,238.5l-1.06.73c-.4.28-.95.22-1.29-.13l-9.81-10.23c-.35-.36-.91-.41-1.32-.11l-40.4,29.93c-.41.3-.99.25-1.33-.13-.69-.76-1.88-2.02-2.91-2.94-.46-.41-.44-1.14.05-1.52l43.42-34.48c.42-.33,1.02-.28,1.37.13,4.49,5.16,11.09,14.58,13.47,17.28.4.45.31,1.14-.19,1.48Z"/>
        <path class="cls-5" d="M195.33,266.58l-54.32,43.45c-.4.32-.96.29-1.33-.07l-7.81-7.77c-.42-.42-.39-1.11.07-1.49l53.6-44.03c.39-.32.95-.3,1.32.04l8.53,8.35c.44.42.42,1.13-.06,1.51Z"/>
        <path class="cls-5" d="M209.21,372.31l-5.7,5.99c-.33.35-.87.41-1.28.14l-25.97-17.2c-.48-.32-.59-.96-.25-1.43l5.81-7.92c.33-.45.96-.54,1.4-.21l25.86,19.13c.48.36.54,1.06.13,1.49Z"/>
        <path class="cls-5" d="M134.83,266.43l-12.24,15.07c-.34.41-.94.49-1.37.18l-16.89-12.32c-.44-.32-.54-.93-.23-1.38l1.23-1.76c.28-.4.81-.55,1.25-.33,1.78.89,6.63,2.86,13.04,1.98,5.18-.71,9.31-3.88,10.81-5.18.36-.31.9-.32,1.27-.02l2.97,2.33c.44.35.51.98.16,1.42Z"/>
        <path class="cls-5" d="M233.71,302.83c-12.47,1.64-14.81-16.26-3.66-18.39,13.27-2.53,15.69,16.8,3.66,18.39Z"/>
        <path class="cls-5" d="M222.56,75.22c-5,4.74-20.08-7.25-22.23-12.98-6.62-17.64,28.91,6.66,22.23,12.98Z"/>
        <path class="cls-5" d="M195.57,101.43c-5.11,5.39-17.14-1.64-17.8-8.49-1.16-11.97,17.51-5.15,18.7,3.13.2,1.43.1,4.31-.9,5.36Z"/>
        <path class="cls-5" d="M287.12,269.18c-.48.37-.99.8-1.4,1.15s-1.04.31-1.4-.1l-22.67-25.92c-.36-.41-.32-1.04.08-1.4l1.51-1.36c.42-.38,1.06-.34,1.42.09,3,3.47,15.41,17.85,22.61,26.1.38.44.31,1.1-.15,1.45Z"/>
        <path class="cls-5" d="M208.15,85.17c-1.01,1.56-6.21-2.74-7.51-3.79-1.4-1.12-9.84-8.52-8.64-9.71,2.42-2.37,20.37,6.97,16.15,13.5Z"/>
        <path class="cls-5" d="M261,329.93c-.09.08-.19.17-.28.25-.1.08-.2.14-.28.19.19-.15.37-.29.56-.44Z"/>
        <path class="cls-5" d="M241.07,54.84c-.38,0-.74-.02-1.05-.04h-.03c-.47-.09-.97-.2-1.49-.34.86.2,1.71.32,2.57.38Z"/>
        <path class="cls-5" d="M78.71,278.44l-10.59-8.32c-.44-.35-1.08-.26-1.42.18l-4.19,5.53c-.32.43-.93.52-1.37.22l-1.88-1.31c-.47-.33-.57-.99-.21-1.45l7.31-9.12c.34-.43.97-.5,1.4-.16l13.59,10.68c.41.32.5.89.22,1.33l-1.4,2.18c-.32.5-1,.61-1.46.24Z"/>
        <rect class="cls-5" x="82.61" y="250.59" width="5.03" height="23.1" rx="1" ry="1" transform="translate(-175.34 172) rotate(-52.92)"/>
        <rect class="cls-5" x="106.95" y="268.99" width="5.03" height="23.1" rx="1" ry="1" transform="translate(-180.35 198.72) rotate(-52.92)"/>
        <path class="cls-5" d="M138,228.68l14.67,11.97c.4.35.45.96.12,1.37l-13.23,17.26c-.34.42-.96.5-1.39.17l-2.87-2c-.39-.3-.51-.84-.27-1.27.97-1.74,4.32-5.81,3.74-12.24-.47-5.21-3.46-9.47-4.68-11.03-.3-.38-.28-.91.03-1.27l2.47-2.87c.36-.42,1.01-.47,1.42-.09Z"/>
        <path class="cls-5" d="M99.37,226.49l13.89-16.17c.35-.4.95-.46,1.37-.13l16.49,12.85c.43.33.51.95.19,1.39l-2.46,3.22c-.29.39-.83.52-1.26.29-1.76-.94-6.54-3.07-12.97-2.4-5.2.54-9.43,3.59-10.96,4.83-.37.3-.91.29-1.27-.02l-2.9-2.43c-.43-.36-.48-1-.11-1.42Z"/>
        <path class="cls-5" d="M94.04,234.25l-11.87,15.37c-.33.42-.26,1.02.14,1.37l15.85,13.63c.41.35,1.03.31,1.4-.09l1.43-1.6c.33-.37.35-.92.03-1.3-1.27-1.53-4.3-5.8-4.91-12.24-.49-5.2,1.65-9.95,2.57-11.7.22-.42.11-.95-.27-1.25l-2.95-2.36c-.44-.35-1.07-.27-1.42.17Z"/>
        <rect class="cls-5" x="70.41" y="234.85" width="23.1" height="5.03" rx="1" ry="1" transform="translate(-156.83 159.64) rotate(-52.92)"/>
        <rect class="cls-5" x="89.69" y="210.78" width="23.1" height="5.03" rx="1" ry="1" transform="translate(-126.9 152.52) rotate(-49.69)"/>
        <path class="cls-5" d="M63.88,261.37l-7.89,10.38c-.33.44-.96.53-1.4.19l-2.41-1.83c-.44-.33-.53-.96-.19-1.4l7.89-10.38c.33-.44.96-.53,1.4-.19l2.41,1.83c.44.33.53.96.19,1.4Z"/>
        <path class="cls-5" d="M79.89,220.27l-15.3,20.27c-.33.44-.96.53-1.4.19l-3.97-3.04c-.44-.33-.53-.96-.19-1.4l15.3-20.27c.33-.44.96-.53,1.4-.19l3.97,3.04c.44.33.53.96.19,1.4Z"/>
        <path class="cls-5" d="M99.76,194l-15.3,20.27c-.33.44-.96.53-1.4.19l-3.97-3.04c-.44-.33-.53-.96-.19-1.4l15.3-20.27c.33-.44.96-.53,1.4-.19l3.97,3.04c.44.33.53.96.19,1.4Z"/>
      </g>
      <g id="Verde-2" data-name="Verde">
        <path class="cls-1" d="M353.25,106.89c1.94-1.49,8.7-11.26,8.66-15.68-.05-5.02-6.1-9.36-4.95-16.98.12-.76,2.91-13.28,1.71-18.27-.06-.25-.12-.48-.19-.71-2.04-6.62-13.12-13.36-19.65-14.83-12.79-2.86-16.86,4.9-27.2,9.16-15.26,6.3-32,1.45-47.99.39-2.12-.14-5.03.72-6.75-.75-1.25.73-2.49,1.51-3.75,2.25.01.13.03.26.06.38h0c.31,1.49,1.64,2.84,2.94,3.36.07.03.15.06.22.08.14.06.29.11.44.15,3.48,1.05,9.28.39,12.84.52,1,.04,2.01-.04,3,.01-.87,2.67-2.83,1.03-3.59.77-.06-.02-.12-.03-.16-.03-4.76-.02-8.21-.22-12.75-.75-1.5-.18-2.88-1.4-4.2-1.49-4.21-.26-6.71,1.23-11.53.33.31.02.67.04,1.05.04-.86-.06-1.71-.18-2.57-.38-5.3-1.4-4.8-3.65-7.99-5.88-9.36-6.55-8.36-3.75-14.51-14.33l1.5-.75c8.09,4.39,31.89,14.13,40.5,14.97.74.08,1.51-.04,2.25,0,1.48.09,3.02.02,4.5,0,11.35-.13,44.37-4.66,52.08-12.77,3.76-3.95,7.09-11.52,9.89-16.2.92-.22,7.39,5.34,8.62,6.36,3.62,3.02,20.22,18.44,21.66,21.12.65,1.2,2.01,1.51,1.92,2.86,1.2,3.34,1.93,6.89,2.95,10.31.02.06.03.11.05.17,4.93,16.25,9.35,31.13,13.9,47.51,1.22,3.28,4.6.07,5.45.63.31.2,1.49,7.73,2.73,8.47v.75l-3.57,1.34c-.78.29-1.14,1.21-.75,1.95l3.57,6.85c-41.26,22.66-82.78,44.96-123.75,68.13-7.83,2.14-14.92,6.35-22.4,9.33-.76.3-2.39-.63-3.84-.04-8.23,3.39-22.68,9.8-30.05,14.24-6.64,4-12.83,16.58-20.66,16.89-3.1.13-10.39-7.29-13.4-9.01-1.43-2.07-16.6-13.57-16.14-14.56,1.54-3.34,10.11.77,12.41,1.07,7.34.93,17.34.93,24.51-.9,9.3-2.37,13.34-9.14,21.07-13.4,5.17-2.86,14.55-4.75,18.47-7.77,3.95-3.04,11.51-14.86,15.76-19.45,4.55-4.91,18.16-18.05,23.75-20.47,4.95-2.14,18.18-1.5,25.15-4.13,18.67-7.04,17.78-34.91,42.3-38.59,0,0,13.14.25,16.43-2.27Z"/>
        <path class="cls-1" d="M87.8,47.43c-.38,1.9-3.8,12.38-4.68,12.88-.83.48-3.13-.1-4.92.71-8.11,3.68-11.75,9.99-7.88,18.69,1.55,3.49,6.61,1.77,6.18,4.3-.18,1.02-4.15,2.72-5.27,3.73-7.82,7.03-13.89,13.28-14.99,24.35l-29.24-22.45c12.16-15.83,24.42-31.48,36.75-47.17.09-.02.18-.04.28-.06,0,0,.03,0,.04,0,3.82-.47,23.54,3.85,23.73,5.03Z"/>
        <path class="cls-1" d="M215.25,31.99c-.1.34-.42.71-.75.75-3.06.39-6.29.92-9.39.78-2.58-.13-5.44-3.53-6.24,1.28-.24,1.46,1.07,4.99.63,5.42-2.78,2.67-14.54-14.11-17.05-15.89l-.21-4.31c-.51-.75-12.59,8.23-16.12,8.23h-19.87s-.04.01-.06.04c-.31.57.78,6.93-.92,9.47-2.03,3.01-12.45,4.41-15.13,1.71-.87-.87-1.18-3.23-2.15-4.59-3.73-5.26-7.77-7.21-4.99-14.11,6.77.48,25.48,2.42,30.95,1.32,1.06-.21,10.3-4.68,10.63-5.23,1.28-2.17-2.56-5.39-1.86-6.66.11-.18,5.5-3.2,6.18-3.01,1.42.42,1.42,4.37,3.06,5.21l11.41-7.32c3.05,9.39,10.43,10.54,17.85,15.83,4.69,3.33,9.46,8.27,14.02,11.08Z"/>
        <path class="cls-1" d="M59.98,246.46l-26.73,36.82c-1.11-.88-6.74-4.09-6.74-4.86.07-1.02,24.95-27.89,23.72-29.3-72.45-60.96-45.99-31.49-6.22-97.75-6.28-8.02,15.65,8.36,15.65,8.36,0,0-12.47,14.08-17.48,17.62-3.27,2.32-10.17,2.71-13.3,5.22-3.65,2.93-12,14.39-10.59,18.85,1.65,5.22,16.79,18.56,21.99,16.87,12.3-4,37.64-43.3,37.64-43.3l14.33,12.39-39.98,52.32s7.62,4.48,7.7,6.75Z"/>
        <path class="cls-1" d="M161.42,358.79l-8.32,10.53c-.33.44-.95.54-1.4.21l-40.37-29.87c-.45-.33-.54-.97-.2-1.42l9.74-11.99c.34-.44.98-.52,1.42-.17l38.95,31.33c.42.34.5.94.18,1.37Z"/>
        <path class="cls-1" d="M116.21,25.22c-.53.46-10.64,1.1-13.76,2.37-5.66,2.31-11.82,10.81-17.5,14.02l-18.2-3.62c2.12-2.67,13.16-18.07,14.78-18.55,3.89-1.16,20.71,1.44,21.86-1.41.38-.92,0-2.43.88-3.25,1.18-.59,3.38-.64,6.99,0,1.12.35-.09,4.36.34,4.78.21.21,2.73.41,3.9.48.07,0,.14,0,.21.02.45.09.72.41.88.86.52,1.45-.23,4.18-.38,4.31Z"/>
        <path class="cls-1" d="M241.07,54.84c-.38,0-.74-.02-1.05-.04h-.03c-.71-.06-1.24-.16-1.49-.34.86.2,1.71.32,2.57.38Z"/>
        <path class="cls-1" d="M351.01,72.79c.09,7.94,5.26,17.77.37,24.33-5.76,7.73-22.65,3.42-34.51,17.21-8.56,8.8-15.09,28.7-28.56,30.63-14.01,2.01-15.87-5.32-26.66-10.69-16.5-8.2-33.74-11.54-52.03-12.28-1.97-.08-12.35,1.79-13.08.54-1.11-7.75,6.54-12.06,12.48-15.53,31-18.12,80.08-16.18,103.73-43.19,3.33-3.81,9.43-14.82,14.28-16.47.66-.22,10.6.44,12.02.7,1.16.22,7.72,2.68,8.73,3.26,7.1,4.12,3.16,15.3,3.23,21.49Z"/>
        <path class="cls-1" d="M177.02,165.65c-.52,11.18-6.34,22.26-13.55,30.64-5.91,6.9-14.74,15.98-23.16,7.45l-52.74-46.91c.98-9.57-7.59-26.2-5.66-34.46,1.09-4.68,11.5-11.01,16.02-10.01.75.16,5.35,8.63,6.77,10.15.74.78,9.47,7.68,10.07,7.92,8.94,3.52,19.43-6.2,23.42-5.45,3.49.66,11.25,13.99,15.93,17.07,5.06,3.32,19.62,4.73,21.75,9.74.8,1.89,1.27,11.36,1.15,13.86Z"/>
        <path class="cls-1" d="M196.46,56.28c-2.67,5.01,1.86,9.83,1.54,11.25-.63,2.77-9.85-2.46-10.34,3.88-.35,4.67,11.21,6.45,6.97,10.74-2.02,2.04-14.22-2.2-19.55,2.95-2.54,2.45.35,10.67-2.23,11.27-.57.13-4.29-1.98-6.04-2.17-6.32-.72-13.27.94-19.51-.75-.98-.77-2.43-14.21-3.67-17.29-.37-.91-4.62-8.7-5.16-9.46-1.82-2.61-8.6-6.96-8.76-7.52-.42-1.44,1.93-12.66,3.01-13.36,2.26-1.46,5.96,1.01,8.98.01.38-.13,6.19-3.99,6.54-4.36,2.06-2.18,1.87-4.76,2.92-6.45,1.81-2.91,13.64-1.01,17.78-1.71,3.77-.64,9.74-5.59,11.58-5.68,1.46-.07,10.58,12.1,13.79,14.41,3.5,2.52,19.05,7.73,19.32,9.14,1.43,7.38-13.57-1.62-17.17,5.1Z"/>
        <path class="cls-1" d="M310.19,57.48c-1.67,5.56-16.78,15.83-22.2,18.29-28.26,12.84-60.23,14.11-86.47,31.23-1.52.99-6.5,5.74-6.95,5.82-1.09.17-2.59-2.7-4.07-3.72-.09-.06-.19-.12-.29-.18-1.46-.96-.84-1.28.92-1.32h.12c3.99-.11,5.94-.48,8.65-3.72,6.97-8.31-5.03-13.3.68-17.3,3.21-2.25,6.82,4.38,9.65,3.73,4.58-3.01,2.59-8.35,1.28-12.65,5.2,2.61,14.02,5.97,15.01-2.61.95-8.24-7.25-11.03-7.55-14.28-.66-6.99,9.39.35,12.03,1.56,2.04.95,5.63,3.05,6.95,3.53,7.69,2.76,12.9-2.26,19.87-3.73,7.97-1.68,13.34-.39,21.49-4.03.81-.36.94-1.93,1.73-2.16,4.81-1.39,19.07.67,25.38.07.33-.03,5.47-4.21,3.77,1.47Z"/>
        <path class="cls-1" d="M230.25,158.89c-.25,2.11-6.19,13.73-7.52,14.95-8.01,7.4-28.74,1.85-35.73-5.1-7.26-7.22-7.33-20.81-2.62-29.43,7.21-13.23,21.54-14.12,34.4-8.64,10.58,4.51,12.7,17.92,11.47,28.22Z"/>
        <path class="cls-1" d="M134.87,116.83c-4.15,7.03-13.73,13.82-21.87,9.37-10.76-5.87-12.02-27.84-8.58-38.26,2.37-7.2,11.09-20.23,19.15-21.34,11.09-1.53,15.66,13.53,16.47,22.13.6,6.37-1.96,22.66-5.17,28.1Z"/>
        <path class="cls-1" d="M214.08,295.24c-.04,3.55,1.28,6.36,1.96,7.56.22.39.15.87-.16,1.18l-23.82,24.5c-.34.35-.89.41-1.29.12-3.91-2.77-23.28-16.47-29.15-20.21-.56-.36-.62-1.16-.11-1.59l36.37-31.61c.35-.31.87-.33,1.25-.05l16.09,11.83c.36.27.5.74.34,1.16-.49,1.28-1.44,4.13-1.47,7.12Z"/>
        <path class="cls-1" d="M260.98,326.14l-34.03,30.81c-.36.32-.89.35-1.28.05l-27.03-20.63c-.47-.36-.53-1.05-.12-1.48l22.98-24.61c.3-.32.77-.41,1.17-.22,1.53.76,5.67,2.51,10.89,2.35,4.68-.15,8.34-1.55,9.68-2.14.35-.15.74-.09,1.03.15,2.47,2.06,13.7,11.43,16.74,14.24.43.4.42,1.08-.01,1.47Z"/>
        <path class="cls-1" d="M311.45,295.42l-42.06,34.28c-24.4,22.83-54.65,44.77-79.74,66.81-3.6-3-21.68-14.41-25.85-17.66-.39-.31-.5-.85-.25-1.29l6.88-9.35c.3-.53,1-.66,1.48-.29,4.3,3.38,23.72,15.6,27.82,18.34.38.25.88.21,1.21-.1,3.99-3.77,28.17-26.63,39.82-37.51,6.09-5.69,55.78-48.13,62.62-53.97.43-.37.47-1.01.09-1.42-2.16-2.38-11.25-13.61-13.62-16.55-.32-.4-.29-.98.08-1.34.8-.78,2.13-2.04,2.57-2.33,5.92,6.77,12.42,12.18,17.49,19.09.54.74,1.92,2.48,1.46,3.29Z"/>
        <path class="cls-1" d="M261,329.93c-.09.08-.19.17-.28.25-.1.08-.2.14-.28.19.19-.15.37-.29.56-.44Z"/>
        <path class="cls-1" d="M189.36,124.8c-.47,1.16-12.1,14.05-13.6,14.88-14.91,8.26-35.24-14.59-33.07-29.28.65-4.42,3.76-10.61,8.61-11.61,2.66-.54,13.45-.54,15.91.24,4.04,1.29,4.03,6.37,7.17,9.31,5,4.69,19.71,4.75,14.98,16.46Z"/>
        <path class="cls-1" d="M294.64,296.58l-24.86,20.72c-.38.31-.92.31-1.29-.01l-18.14-15.67c-.34-.29-.44-.76-.26-1.17.54-1.19,1.53-3.9,1.26-7.21-.34-4.1-1.18-6.47-1.65-7.52-.18-.4-.08-.88.25-1.17l17.59-15.3c.4-.34.99-.32,1.36.05l25.81,25.82c.42.42.38,1.1-.07,1.48Z"/>
        <path class="cls-1" d="M214.75,192.08c-13.77,7.52-21.44,17.35-38.91,17.36-4.3,0-9.37-1.96-13.84-1.52-2.1-2.04,10.99-15.79,12.63-18.46,1.68-2.75,6.51-16.07,8.13-16.62,3.31-1.14,4.92,2,7.31,2.94,6.91,2.74,14.08,5.06,21.59,4.23,4.01-.44,16.62-6.63,18.46-1.53,3.19,8.89-10.09,10.72-15.37,13.6Z"/>
        <path class="cls-1" d="M97.32,104.43c-2.37,3.39-14.45,3.91-17.63,11.23-1.33,3.08-2.5,12.97-2.29,16.28.14,2.19,5.53,17.31-.68,14.8-.95-.39-12.64-9.54-12.98-10.31-4.97-11.42-.96-33.36,9.06-41.13,2.48-1.92,6.27-3.43,9.05-5.19,4.35-2.77,11.16-10.64,16.47-6.16,2.3,1.94.59,18.22-1,20.48Z"/>
        <path class="cls-1" d="M260.22,259.23l-18.44,18.39c-.36.36-.93.4-1.32.08-1.24-1-4.26-2.92-8.97-2.75-4.23.14-7.14,1.86-8.34,2.71-.38.27-.89.23-1.23-.08l-11.76-10.48c-.47-.42-.44-1.16.06-1.54l33.9-25.65c.43-.32,1.03-.25,1.37.16l14.8,17.81c.33.4.3.98-.06,1.35Z"/>
        <path class="cls-1" d="M126.81,46.59c-.06,15.16-7.45,15.53-18.58,20.45-1.8.79-3.19,2.95-5.46,3.54-3.02.78-13.74,1.19-14.87-2.41-2.13-6.75,1.98-8.77,3.64-13.3,2.68-7.3,6.28-21.39,15.5-23.45,9.58-2.15,19.8,5.17,19.77,15.17Z"/>
        <path class="cls-1" d="M253.58,155.97c-3.47,3.19-16.35,19.6-19.35,19.62-7.18.04.05-14.88.47-17.51.7-4.32.23-12.43-1.3-16.57-1.51-4.08-6.14-7.98-5.4-12.95.45-.46,11.29,1.47,12.78,1.84,3.04.76,25.37,9.05,26.11,10.25,3.22,5.24-9.74,12.04-13.31,15.32Z"/>
        <path class="cls-1" d="M118.78,261.73c-20.43,1.81-22.35-27.35-4.21-29.66,21.3-2.72,23.16,27.98,4.21,29.66Z"/>
        <path class="cls-1" d="M164.98,353.7l-31.62-24.43c-.46-.36-.52-1.03-.13-1.46l6.16-6.85c.35-.38.93-.44,1.34-.13l31.41,23.48c.45.33.53.97.2,1.41l-5.95,7.8c-.34.44-.97.52-1.41.18Z"/>
        <path class="cls-1" d="M260.07,238.5l-1.06.73c-.4.28-.95.22-1.29-.13l-9.81-10.23c-.35-.36-.91-.41-1.32-.11l-40.4,29.93c-.41.3-.99.25-1.33-.13-.69-.76-1.88-2.02-2.91-2.94-.46-.41-.44-1.14.05-1.52l43.42-34.48c.42-.33,1.02-.28,1.37.13,4.49,5.16,11.09,14.58,13.47,17.28.4.45.31,1.14-.19,1.48Z"/>
        <path class="cls-1" d="M195.33,266.58l-54.32,43.45c-.4.32-.96.29-1.33-.07l-7.81-7.77c-.42-.42-.39-1.11.07-1.49l53.6-44.03c.39-.32.95-.3,1.32.04l8.53,8.35c.44.42.42,1.13-.06,1.51Z"/>
        <path class="cls-1" d="M209.21,372.31l-5.7,5.99c-.33.35-.87.41-1.28.14l-25.97-17.2c-.48-.32-.59-.96-.25-1.43l5.81-7.92c.33-.45.96-.54,1.4-.21l25.86,19.13c.48.36.54,1.06.13,1.49Z"/>
        <path class="cls-1" d="M134.83,266.43l-12.24,15.07c-.34.41-.94.49-1.37.18l-16.89-12.32c-.44-.32-.54-.93-.23-1.38l1.23-1.76c.28-.4.81-.55,1.25-.33,1.78.89,6.63,2.86,13.04,1.98,5.18-.71,9.31-3.88,10.81-5.18.36-.31.9-.32,1.27-.02l2.97,2.33c.44.35.51.98.16,1.42Z"/>
        <path class="cls-1" d="M233.71,302.83c-12.47,1.64-14.81-16.26-3.66-18.39,13.27-2.53,15.69,16.8,3.66,18.39Z"/>
        <path class="cls-1" d="M222.56,75.22c-5,4.74-20.08-7.25-22.23-12.98-6.62-17.64,28.91,6.66,22.23,12.98Z"/>
        <path class="cls-1" d="M195.57,101.43c-5.11,5.39-17.14-1.64-17.8-8.49-1.16-11.97,17.51-5.15,18.7,3.13.2,1.43.1,4.31-.9,5.36Z"/>
        <path class="cls-1" d="M287.12,269.18c-.48.37-.99.8-1.4,1.15s-1.04.31-1.4-.1l-22.67-25.92c-.36-.41-.32-1.04.08-1.4l1.51-1.36c.42-.38,1.06-.34,1.42.09,3,3.47,15.41,17.85,22.61,26.1.38.44.31,1.1-.15,1.45Z"/>
        <path class="cls-1" d="M208.15,85.17c-1.01,1.56-6.21-2.74-7.51-3.79-1.4-1.12-9.84-8.52-8.64-9.71,2.42-2.37,20.37,6.97,16.15,13.5Z"/>
        <path class="cls-1" d="M261,329.93c-.09.08-.19.17-.28.25-.1.08-.2.14-.28.19.19-.15.37-.29.56-.44Z"/>
        <path class="cls-1" d="M241.07,54.84c-.38,0-.74-.02-1.05-.04h-.03c-.47-.09-.97-.2-1.49-.34.86.2,1.71.32,2.57.38Z"/>
        <path class="cls-1" d="M78.71,278.44l-10.59-8.32c-.44-.35-1.08-.26-1.42.18l-4.19,5.53c-.32.43-.93.52-1.37.22l-1.88-1.31c-.47-.33-.57-.99-.21-1.45l7.31-9.12c.34-.43.97-.5,1.4-.16l13.59,10.68c.41.32.5.89.22,1.33l-1.4,2.18c-.32.5-1,.61-1.46.24Z"/>
        <rect class="cls-1" x="82.61" y="250.59" width="5.03" height="23.1" rx="1" ry="1" transform="translate(-175.34 172) rotate(-52.92)"/>
        <rect class="cls-1" x="106.95" y="268.99" width="5.03" height="23.1" rx="1" ry="1" transform="translate(-180.35 198.72) rotate(-52.92)"/>
        <path class="cls-1" d="M138,228.68l14.67,11.97c.4.35.45.96.12,1.37l-13.23,17.26c-.34.42-.96.5-1.39.17l-2.87-2c-.39-.3-.51-.84-.27-1.27.97-1.74,4.32-5.81,3.74-12.24-.47-5.21-3.46-9.47-4.68-11.03-.3-.38-.28-.91.03-1.27l2.47-2.87c.36-.42,1.01-.47,1.42-.09Z"/>
        <path class="cls-1" d="M99.37,226.49l13.89-16.17c.35-.4.95-.46,1.37-.13l16.49,12.85c.43.33.51.95.19,1.39l-2.46,3.22c-.29.39-.83.52-1.26.29-1.76-.94-6.54-3.07-12.97-2.4-5.2.54-9.43,3.59-10.96,4.83-.37.3-.91.29-1.27-.02l-2.9-2.43c-.43-.36-.48-1-.11-1.42Z"/>
        <path class="cls-1" d="M94.04,234.25l-11.87,15.37c-.33.42-.26,1.02.14,1.37l15.85,13.63c.41.35,1.03.31,1.4-.09l1.43-1.6c.33-.37.35-.92.03-1.3-1.27-1.53-4.3-5.8-4.91-12.24-.49-5.2,1.65-9.95,2.57-11.7.22-.42.11-.95-.27-1.25l-2.95-2.36c-.44-.35-1.07-.27-1.42.17Z"/>
        <rect class="cls-1" x="70.41" y="234.85" width="23.1" height="5.03" rx="1" ry="1" transform="translate(-156.83 159.64) rotate(-52.92)"/>
        <rect class="cls-1" x="89.69" y="210.78" width="23.1" height="5.03" rx="1" ry="1" transform="translate(-126.9 152.52) rotate(-49.69)"/>
        <path class="cls-1" d="M63.88,261.37l-7.89,10.38c-.33.44-.96.53-1.4.19l-2.41-1.83c-.44-.33-.53-.96-.19-1.4l7.89-10.38c.33-.44.96-.53,1.4-.19l2.41,1.83c.44.33.53.96.19,1.4Z"/>
        <path class="cls-1" d="M79.89,220.27l-15.3,20.27c-.33.44-.96.53-1.4.19l-3.97-3.04c-.44-.33-.53-.96-.19-1.4l15.3-20.27c.33-.44.96-.53,1.4-.19l3.97,3.04c.44.33.53.96.19,1.4Z"/>
        <path class="cls-1" d="M99.76,194l-15.3,20.27c-.33.44-.96.53-1.4.19l-3.97-3.04c-.44-.33-.53-.96-.19-1.4l15.3-20.27c.33-.44.96-.53,1.4-.19l3.97,3.04c.44.33.53.96.19,1.4Z"/>
      </g>
    </g>
  </g>
</svg>